<?xml version="1.0" encoding="utf-8"?>
<!-- Generator: Adobe Illustrator 28.0.0, SVG Export Plug-In . SVG Version: 6.00 Build 0)  -->
<svg version="1.1" id="Layer_1" xmlns="http://www.w3.org/2000/svg" xmlns:xlink="http://www.w3.org/1999/xlink" x="0px" y="0px"
	 viewBox="0 0 1190.55 1683.78" style="enable-background:new 0 0 1190.55 1683.78;" xml:space="preserve">
<style type="text/css">
	.st0{fill:#ECECEB;stroke:#231F20;stroke-width:0.5;stroke-miterlimit:10;}
	.st1{fill:#A51E23;}
	.st2{fill:#000002;}
	.st3{fill:#530010;}
	.st4{fill:#3C1212;stroke:#E6E7E8;stroke-width:0.5;stroke-miterlimit:10;}
	.st5{fill:#581211;stroke:#E6E7E8;stroke-width:0.5;stroke-miterlimit:10;}
	.st6{fill:#A51E22;stroke:#E6E7E8;stroke-width:0.5;stroke-miterlimit:10;}
</style>
<g>
	<path class="st0" d="M1301.98,1041.02c-0.95,21.79-1.41,32.7-4.02,43.64c-3.76,15.91-6.67,15.62-16,42.21
		c-8.14,23.17-5.72,22.77-13.54,42.9c-6.57,17-12.95,29.26-22.01,41.46c-2.85,3.82-2.98,3.68-7,9.02
		c-15.47,20.62-13.58,23.46-22.05,33.54c-6.93,8.24-7.23,5.2-37.06,30.29c-12,10.11-11.35,10.11-15.5,12.98
		c-3.57,2.47-19.01,12.81-44.58,19.47c-18.48,4.82-32.55,5.2-59.57,5.94c-17.14,0.46-19.69-0.23-58.13-0.89
		c-33.72-0.57-50.57-0.89-59.11,0c-8.05,0.8-37,4.13-68.59,17.66c-21.98,9.42-35.49,19.58-48.05,29.2
		c-34.51,26.39-29.57,35.55-59.6,55.53c-23.72,15.79-47.59,23.92-58.09,27.42c-19.04,6.35-39.55,11.57-54.14,10.62
		c-14.2-0.09-38.7-3.47-60.12-10.62c-10.53-3.5-34.38-11.63-58.09-27.42c-30.03-19.98-25.12-29.14-59.6-55.53
		c-12.59-9.62-26.07-19.78-48.05-29.2c-31.6-13.52-60.55-16.85-68.63-17.66c-8.5-0.89-25.38-0.57-59.08,0
		c-38.44,0.66-41.02,1.35-58.13,0.89c-27.02-0.75-41.08-1.12-59.57-5.94c-25.58-6.66-41.05-17-44.58-19.47
		c-4.19-2.87-3.53-2.87-15.5-12.98c-29.83-25.09-30.13-22.05-37.09-30.29c-8.47-10.08-6.57-12.92-22.01-33.54
		c-4.02-5.34-4.19-5.2-7-9.02c-9.06-12.2-15.47-24.46-22.05-41.46c-7.82-20.13-5.36-19.73-13.51-42.9
		c-9.36-26.59-12.23-26.3-16-42.21c-2.62-10.94-3.11-21.85-4.02-43.64c-0.82-19.04-1.21-28.6,0-41.46
		c0.88-9.62,2.39-24.32,8.5-42.55c7.85-23.46,13.54-23.43,18.51-42.55c3.53-13.49,3.34-23.66,3.01-43.64
		c-0.29-16.22-1.57-16.71-3.01-41.46c-1.11-19.52-0.33-19.5-1.47-43.99c-1.01-21.05-1.6-21.53-2.52-41.83
		c-0.82-18.75-0.95-33.13-0.98-40.77c-0.07-20.27-0.13-30.43,0.98-43.24c1.05-11.74,1.7-11.46,6.02-41.46
		c3.89-26.9,3.34-26.87,6.02-43.27c1.8-10.97,3.86-21.36,8.01-42.18c3.99-20.01,5.99-30.06,9-43.27
		c2.65-11.57,5.63-24.58,10.53-41.83c2.88-10.31,7.36-25.15,13.51-42.9c4.94-14.13,8.73-23.74,16.03-42.21
		c6.71-16.94,10.53-25.87,18.02-43.24c3.4-7.9,7.23-16.71,13.54-28.14c3.27-5.97,5.56-9.71,7.98-13.72
		c10.7-17.74,12.66-23.4,23.06-42.18c14-25.27,13.61-20.73,25.55-42.55c12.63-23.06,15.18-31.99,21.52-32.1
		c4.74-0.06,6.97,4.82,28.03,31.35c0,0,4.55,5.74,11.02,13.7c13.87,17.08,19.69,23.23,26.07,31.01c5.89,7.21,13.02,18.38,27.02,40.4
		c2.32,3.62,9.42,14.82,27.54,44.36c13.9,22.63,20.93,34.14,25.55,42.18c10.07,17.63,9.52,18.15,23.06,42.55
		c7.75,14.04,7.56,13.18,24.04,42.21c13.67,24.09,13.67,24.41,24.04,42.55c11.78,20.62,17.66,30.89,24.08,41.46
		c23,38.19,24.37,36.18,25.51,43.24c0.43,2.53,0.79,6.09,4.29,7.69c7.79,3.59,20.48-7.21,47.3-11.31c2.68-0.4,7.16-0.75,16-1.44
		c20.9-1.61,39.42-2.56,58.09-3.24c15.15-0.57,33.89-1.15,55.58-1.52c0.33,0,0.65,0,0.98-0.03c0.33,0.03,0.65,0.03,0.98,0.03
		c21.72,0.37,40.46,0.95,55.58,1.52c18.71,0.69,37.23,1.64,58.13,3.24c8.83,0.69,13.31,1.03,16,1.44
		c26.82,4.11,39.51,14.9,47.3,11.31c3.47-1.61,3.86-5.17,4.25-7.69c1.14-7.06,2.52-5.05,25.55-43.24
		c6.38-10.57,12.27-20.85,24.04-41.46c10.4-18.15,10.4-18.46,24.08-42.55c16.45-29.03,16.29-28.17,24.04-42.21
		c13.51-24.41,12.99-24.92,23.06-42.55c4.61-8.04,11.65-19.55,25.55-42.18c18.12-29.54,25.22-40.74,27.54-44.36
		c14-22.02,21.13-33.19,27.02-40.4c6.35-7.78,12.2-13.93,26.04-31.01c6.48-7.95,11.02-13.7,11.02-13.7
		c21.07-26.53,23.32-31.41,28.07-31.35c6.35,0.11,8.9,9.04,21.52,32.1c11.91,21.82,11.55,17.28,25.55,42.55
		c10.4,18.78,12.36,24.43,23.03,42.18c2.45,4.02,4.74,7.75,8.01,13.72c6.31,11.43,10.14,20.24,13.54,28.14
		c7.49,17.37,11.32,26.3,18.02,43.24c7.29,18.46,11.09,28.08,16,42.21c6.18,17.74,10.63,32.59,13.54,42.9
		c4.87,17.26,7.88,30.26,10.53,41.83c3.01,13.21,5,23.26,9,43.27c4.15,20.82,6.18,31.21,8.01,42.18
		c2.68,16.39,2.09,16.37,5.99,43.27c4.35,30,5,29.72,6.02,41.46c1.14,12.81,1.08,22.97,1.01,43.24c-0.03,7.64-0.16,22.02-1.01,40.77
		c-0.88,20.3-1.47,20.79-2.49,41.83c-1.14,24.49-0.36,24.46-1.5,43.99c-1.41,24.75-2.68,25.24-2.98,41.46
		c-0.36,19.98-0.52,30.15,2.98,43.64c5,19.12,10.7,19.09,18.55,42.55c6.12,18.23,7.59,32.93,8.5,42.55
		C1303.19,1012.43,1302.8,1021.99,1301.98,1041.02z"/>
	<g>
		<path class="st1" d="M529.76,1049.42c0.18,7.44,1.44,14.82,1.38,22.28c-0.04,4.7,0.07,9.4-0.74,14.07
			c-0.74,4.26-2.45,8.06-5.24,11.37c-2.25,2.68-5.02,4.45-8.76,4.22c-0.48-0.03-1.11-0.1-1.44,0.14c-3.89,2.88-6.72,0.57-9.41-1.9
			c-2.33-2.13-3.78-4.81-3.89-8.01c-0.12-3.4,2.14-5.11,5.46-4.06c3.42,1.08,5.65,3.54,7.21,6.63c1.43,2.82,3.32,3.32,5.81,1.19
			c3.51-3,5.39-6.94,5.94-11.44c1.62-13.37-0.27-26.6-1.94-39.82c-0.78-6.22-1.92-12.39-2.77-18.6c-0.29-2.09-0.8-3.59-3.39-3.12
			c-0.38,0.07-0.79-0.03-1.19-0.1c-3.85-0.65-3.88-0.66-4.68,3.36c-3.91,19.55-10.14,38.26-20.52,55.48
			c-5.48,9.09-12.05,17.29-20.96,23.4c-11.76,8.07-24.44,9.88-38,5.1c-1.22-0.43-2.32-0.67-3.7-0.23
			c-4.8,1.53-11.47-1.81-13.27-6.46c-1.25-3.24,0.33-5.76,3.92-5.87c4.64-0.15,8.28,1.94,10.81,5.68c0.9,1.33,1.95,2.09,3.41,2.59
			c15.65,5.44,28.95,1.18,40.51-9.68c11.04-10.37,17.91-23.38,23.52-37.1c5.48-13.41,9.45-27.3,11.14-41.64
			c0.54-4.62,1.63-9.18,1.81-13.86c0.07-1.72-0.35-2.88-1.83-3.97c-3.51-2.57-6.87-5.34-10.22-8.11c-1.21-1-1.79-1.21-2.47,0.51
			c-1.81,4.56-3.79,9.05-5.75,13.55c-0.49,1.13-0.51,2.22-0.41,3.43c0.86,10.45,1.93,20.89,1.45,31.39
			c-0.35,7.68-1.24,15.26-5.42,22.02c-0.72,1.16-1.52,2.35-2.54,3.24c-6.08,5.28-7.61,5.53-13.78-0.74
			c-3.22-3.28-4.33-7.65-4.63-12.15c-0.12-1.81-0.02-3.63-0.02-6.17c-3.7,3.97-6.75,7.41-9.99,10.67c-2.78,2.8-5.78,5.38-8.67,8.08
			c-0.66,0.62-1.5,0.95-1.12,2.36c1.35,5.03-0.5,9.03-5.15,11.54c-4.15,2.24-8.7,2.73-13.32,2.44c-2.19-0.14-3.97,0.42-5.85,1.54
			c-12.62,7.56-25.63,14.29-40.21,17.5c-9.92,2.18-19.82,2.68-29.19-1.95c-11.24-5.56-15.76-15.49-17.3-27.15
			c-0.14-1.07-0.26-2.15-0.25-3.22c0.02-2.88-0.68-5.41-2.14-8.03c-2.39-4.27-2.55-9.03-0.87-13.67c0.71-1.97,1.89-3.79,4.31-4.02
			c2.4-0.23,3.84,1.31,5.08,3.05c3.68,5.22,3.56,13.23-0.28,18.2c-0.42,0.54-0.93,0.98-0.9,1.77c0.31,10.79,2.59,20.75,12.63,27.05
			c7.14,4.48,15.19,4.55,23.15,3.33c14.49-2.22,27.44-8.46,39.87-15.84c0.14-0.08,0.18-0.33,0.29-0.54
			c-9.32-3.63-15.2-10.64-18.39-19.6c-3.37-9.49,1.04-17.73,6.2-25.83c-9.15-0.58-17.66-2.31-25.7-5.9
			c-1.54-0.69-3.06-1.43-4.55-2.2c-2.24-1.16-4.18-2.08-7.15-1.52c-5.98,1.13-14.47-7.03-14.42-13.13c0.03-3.19,2.39-5.13,5.89-4.48
			c5.13,0.95,8.83,4.02,11.2,8.47c1.03,1.93,2.34,3.25,4.19,4.33c10.26,6.02,21.39,8.84,33.29,8.88c1.2,0,2.3,0,3.28-0.97
			c12.74-12.6,28.3-21.14,43.95-29.54c2.25-1.21,4.53-2.38,6.74-3.78c-10.5,1.21-21.07,1.46-31.46,3.36
			c-6.66,1.21-13.08,0.64-19.2-2.29c-1.67-0.8-3.33-1.05-5.19-0.9c-12.67,1-25.28,0.75-37.68-2.31
			c-13.47-3.32-25.01-9.52-32.26-21.81c-0.36-0.6-0.84-1.01-1.48-1.37c-5.83-3.24-9.25-11.1-7.56-17.39
			c0.49-1.81,1.2-3.65,3.33-4.17c2.14-0.52,3.93,0.35,5.34,1.9c3.89,4.25,5.55,9.24,4.65,14.9c-0.27,1.69-0.01,3,0.87,4.41
			c5.21,8.35,12.99,13.35,22.16,16.47c12.24,4.16,24.91,4.72,38.08,4.08c-1.85-2.71-3.94-4.9-5.2-7.66
			c-3.65-7.97-0.21-13.89,8.66-14.69c6.76-0.61,12.98,0.44,18.54,4.76c5.89,4.58,12.7,7.53,19.85,9.75
			c1.09,0.34,2.12,0.36,3.21,0.03c8.57-2.58,17.03-5.45,25.2-9.08c0.87-0.39,2.34-0.34,2.27-1.87c-0.06-1.4-1.04-1.79-2.17-2.55
			c-3.08-2.1-5.85-4.7-8.47-7.37c-2-2.04-3.27-2.53-5.99-0.58c-12.86,9.21-27.02,8.64-41.28,4.08c-11.58-3.7-21.37-10-27.16-21.09
			c-1.37-2.63-2.43-5.4-2.69-8.35c-0.29-3.26,0.17-6.41,3.51-8.1c3.22-1.63,6.39-1.28,9.14,1.13c4.16,3.65,8.15,7.48,12.4,11.01
			c10.15,8.45,21.17,15.31,34.66,17.34c4.02,0.6,8.05,0.87,12.12,0.29c0.05-1.19-0.85-1.38-1.5-1.67
			c-13-5.83-22.08-15.84-29.76-27.24c-6.41-9.53-11.46-19.7-13.54-31.1c-0.39-2.14-0.46-4.29-0.29-6.44c0.3-3.93,2.01-6.9,5.99-8.32
			c4.16-1.49,8.14-1.05,10.96,2.26c6.73,7.94,10.86,16.87,8.66,27.57c-0.48,2.33,0.14,4.28,1.18,6.18
			c3.23,5.89,7.36,11.16,11.74,16.25c1.02,1.19,2.04,1.3,3.38,0.86c1.84-0.6,0.65-1.88,0.49-2.67c-1.88-9.35-1.43-18.53,1.92-27.5
			c0.56-1.51,0.51-2.36-1.26-2.76c-0.96-0.22-1.87-0.66-2.76-1.09c-5.03-2.44-5.8-6.25-2.02-10.41c3.8-4.17,8.94-4.81,14.2-4.89
			c13.36-0.21,23.63,5.84,32.13,15.45c3.98,4.5,7.56,9.3,10.93,14.27c-3.86-10.17-7.39-20.51-15.14-28.73
			c-3.3-3.5-7.75-4.67-12.07-6.08c-5.57-1.82-11.21-3.42-16.83-5.07c-5.69-1.67-10.33-4.62-12.76-10.18
			c-1.87-4.28-0.77-6.69,3.79-7.5c15.02-2.64,28.57,0.93,39.97,10.79c9.53,8.24,15.89,18.48,17.04,31.34
			c0.31,3.46-0.4,6.83-0.37,10.25c-0.46,0.18-0.41,0.58-0.41,0.95c0,0.04,0.19,0.08,0.29,0.13c0.03-0.37,0.05-0.73,0.08-1.1
			c8.91-12.27,7.54-32.37-3.04-42.85c-3.36-3.33-7.07-6.31-10.53-9.54c-3.94-3.67-6.4-7.98-5.51-13.58
			c0.21-1.31,0.38-2.52,2.35-2.09c13.32,2.94,25.6,7.94,35.48,17.57c5.23,5.09,8.68,11.14,9.66,18.44c0.11,0.79-0.46,2.3,1.55,2.16
			c9.61-0.64,15.7,4.84,20.2,12.16c7.09,11.54,6.22,23.73,1.89,35.96c-1.44,4.07-3.32,7.96-5.52,11.69
			c-0.01-0.01-0.03-0.03-0.04-0.04c2.33,0.66,4.51-0.31,6.06-1.55c8.69-7,16.67-14.65,19.83-25.76c1.74-6.12,2.24-12.33-0.05-18.48
			c-1.01-2.73-2.55-5.06-5.1-6.76c-0.61,0.82-1.16,1.63-1.77,2.39c-2.39,2.94-5.49,3.96-8.38,2.78c-3.01-1.23-4.82-4.68-4.32-8.26
			c0.79-5.7,6.9-10.83,13.53-11.35c9.72-0.76,18.8,5.47,22.21,15.71c3.91,11.75,1.89,22.97-3.91,33.7
			c-0.54,0.99-1.63,1.75-1.44,3.08c-0.12,0.02-0.23,0.04-0.35,0.06c0.04,0.01,0.09,0.04,0.12,0.02c0.07-0.03,0.13-0.09,0.19-0.13
			c15.29-7.8,29.18-17.28,38.32-32.14c8.09-13.15,8.28-27.06,3.5-41.34c-0.44-1.3-1.32-1.47-2.39-1.81c-4.38-1.4-7.23-5.9-6.63-10.3
			c0.6-4.38,4.54-6.53,8.58-4.68c4.25,1.96,6.63,7.37,4.9,11.64c-0.58,1.42-0.46,2.56-0.01,3.9c7.89,23.45,1.82,43.31-15.99,60.16
			c-6.43,6.08-13.6,11.13-21.27,15.55c-1.09,0.63-2.14,1.3-4.01,2.45c6.2-0.19,11.53-0.17,16.7,1.27
			c6.55,1.82,12.52,4.54,16.55,10.27c0.85,1.21,1.6,2.48,1.94,3.94c0.76,3.18,0.81,6.32-1.65,8.83c-2.4,2.45-5.45,1.91-8.41,1.19
			c-2.92-0.71-5.69-1.83-8.26-3.34c-10.51-6.17-21.81-8.08-33.87-6.48c-6.31,0.84-12.66,1.35-18.99,2.08
			c-1.93,0.22-3.93,0.31-5.65,1.45c16.25,0.04,31.51,3.59,45.57,11.68c0.69,0.4,1.49,0.7,2,1.26c3.73,4.08,8.06,3.59,13,2.45
			c17.3-4.02,33.87-9.61,48-20.63c16.71-13.05,22.44-29.79,16.92-50.17c-0.35-1.29-0.85-2.14-2.29-2.71
			c-5.63-2.23-7.76-9.19-4.85-13.12c0.94-1.26-0.09-1.69-0.64-2.41c-3.9-5.04-5.13-10.72-4.07-16.91c0.31-1.79,0.97-3.51,3-4
			c2.07-0.5,3.42,0.84,4.46,2.3c3.34,4.71,4.51,9.99,3.63,15.63c-0.32,2.04,0.04,3.37,2.03,4.28c2.06,0.94,2.69-0.79,3.52-1.77
			c4.73-5.59,6.49-12.51,8.37-19.29c5.56-20.05,9.26-40.48,12.35-61.02c0.01-0.07,0.14-0.12-0.18,0.14
			c-1.84,6.67-4.26,13.63-6.95,20.4c-3.18,8.02-6.74,16.02-11.6,23.31c-2.08,3.12-4.26,6.17-7.08,8.68
			c-3.04,2.71-6.45,4.64-10.8,3.79c-0.73-0.14-1.29-0.01-1.95,0.36c-3.63,2.04-6.39,1.62-8.82-1.5c-2.58-3.31-3.36-7.08-2.13-11.11
			c1.52-4.97,6.6-6.06,10.2-2.24c1.75,1.86,2.79,4.1,3.06,6.57c0.2,1.81,1.05,2.09,2.59,1.75c2.22-0.49,4.01-1.67,5.58-3.23
			c6.23-6.18,9.86-13.94,13.33-21.74c5.23-11.77,9.38-23.95,12.75-36.34c1.01-3.71,2.49-7.31,3.08-11.3
			c-5.45,9.25-10.96,18.28-17.87,26.41c-3.91,4.59-8.02,8.96-12.89,12.59c-1.99,1.49-4.11,2.76-6.42,3.71
			c-7.18,2.95-12.4,1.38-16.71-5.03c-0.38-0.56-0.76-1.44-1.26-1.54c-5.38-1-6.28-5.48-7.66-9.51c-0.8-2.33-0.88-4.81-0.74-7.28
			c0.11-1.8,0.31-4.09,1.72-4.83c3.07-1.61,2.03-3.95,1.97-6.22c-0.3-11.91,5.77-20.73,14.49-28.04
			c7.83-6.57,16.68-11.51,26.1-15.66c4.26-1.88,8.67-3.61,13.25-6.17c-13.56-2.86-25.92-8.22-39.48-10.54
			c3.73,4.37,7.72,7.91,13.62,9.64c-5.43,3.18-10.53,6.15-15.33,9.58c-7.19,5.15-13.87,10.83-19.29,17.84
			c-6.45,8.35-8.62,17.92-8.43,28.19c0.08,4.5,0.29,9.02,0.02,13.51c-0.28,4.72-1.39,9.25-5.29,12.63
			c-1.15,0.99-1.33,2.71-2.57,3.83c-6.71,6.04-18.25,4.53-23.6-3.17c-1.53-2.2-2.77-4.55-3.28-7.17c-0.4-2.08-1.14-2.2-2.85-1.06
			c-6.88,4.58-14.18,8.32-22.29,10.36c-16.76,4.21-30.15-0.61-40.12-14.56c-1.71-2.39-3.15-4.99-4.6-7.55
			c-1.78-3.12-3.13-6.38-5.65-9.19c-3.4-3.79-4.42-8.72-3.73-13.8c0.28-2.05,0.9-4.16,3.32-4.79c2.37-0.61,4.1,0.72,5.35,2.41
			c3.78,5.16,5.72,10.74,3.29,17.08c-0.31,0.8-0.37,1.46,0.02,2.23c4.13,8.2,9.11,15.62,17.75,19.97
			c7.72,3.88,15.69,3.89,23.81,1.74c8.48-2.24,16-6.39,23.1-11.37c0.84-0.59,1.44-1.19,1.52-2.33
			c1.56-22.39,13.14-39.15,30.57-52.61c2.1-1.62,4.34-3.08,6.92-4.9c-3.24-0.47-6.09-0.91-8.95-1.28c-0.43-0.06-1.02,0.1-1.36,0.37
			c-15.22,12.06-33.06,18.12-51.92,21.59c-10.35,1.9-20.79,2.09-30.98-1.36c-2.46-0.83-4.78-1.96-6.96-3.34
			c-3.6-2.27-6.71-5.02-10.91-6.67c-5.13-2.02-7.65-6.99-7.7-12.64c-0.04-4.14,2.99-6.15,6.85-4.51c5.28,2.25,8.13,6.51,8.86,12.01
			c0.26,1.96,1.03,3.22,2.52,4.36c8.14,6.19,17.63,7.51,27.43,6.9c19.13-1.19,36.72-7.39,53.25-16.74c0.92-0.52,1.94-0.97,2.54-2.01
			c-2.61-1.26-5.18-2.49-7.73-3.74c-1.49-0.73-2.92-0.05-4.37,0.1c-29.81,3.18-56.54-3.66-78.75-24.17
			c-7.36-6.8-12.11-15.27-12.28-25.63c-0.01-0.83-0.33-1.47-0.79-2.15c-3.76-5.49-3.78-11.39-1.74-17.43
			c0.67-1.98,1.79-3.85,4.31-3.9c2.37-0.05,3.57,1.64,4.37,3.46c2.43,5.47,2.77,11.12-0.01,16.46c-1.4,2.69-1.6,5.13-0.94,7.87
			c2.13,8.74,7.81,15.11,14.62,20.56c13.67,10.97,29.7,16.39,46.95,18.73c6.04,0.82,12.1,0.91,18.18,0.49
			c0.57-0.04,1.21-0.01,1.71-0.66c-4.52-4.9-8.29-10.23-9.19-17.05c-0.17-1.33-1.4-1.57-2.34-2.03
			c-20.59-10.06-38.29-23.8-53.59-40.62c-3.98-4.38-7.79-8.9-11.03-13.86c-0.36-0.56-0.81-1.15-1.37-1.49
			c-6.39-3.82-8.2-16.45-3.1-21.77c1.93-2.01,4.29-1.9,6.05,0.53c3.46,4.76,3.47,10.13,2.1,15.49c-0.5,1.97-0.2,3.32,0.95,4.82
			c16.37,21.4,36.53,38.36,60.79,50.57c1.34,0.68,2.17,0.98,2.96-0.73c1.43-3.1,4.26-4.55,7.42-5.42
			c10.36-2.83,20.28,0.89,26.26,9.73c1.1,1.62,1.79,3.66,4.38,3.88c0.91,0.08,1.47,1.41,1.34,2.41c-0.38,2.88,1.48,4.63,3.34,6.18
			c4.25,3.55,8.94,6.46,14.1,8.63c0.89-1.93-0.26-2.78-1.48-3.75c-15.05-11.9-24.92-26.99-28.88-45.68
			c-1.06-5.02-1.22-10.1-0.52-15.2c0.49-3.54-0.26-4.15-3.89-3.34c-3.36,0.75-6.25,2.49-9.09,4.32c-5.42,3.5-10.23,7.75-15.35,12.19
			c-0.09-1.84,0.53-3.22,0.99-4.61c3.11-9.43,7.33-18.24,15.21-24.81c7.5-6.26,16.16-8.54,25.89-6.95c1.89,0.31,3.23,1.1,4.3,2.74
			c4.69,7.26,6.84,15.38,8.46,23.68c0.73,3.75,1.24,7.54,1.85,11.31c0.21,1.29,0.3,2.3,2.28,2.21c7.94-0.35,14.76,1.83,19.17,9.5
			c3.19-5.96,5.98-11.82,11.77-15.82c-4.06-2.01-8.12-3.56-11.79-5.87c-2.36-1.48-4.6-3.09-6.65-4.95
			c-8.32-7.58-10.24-17.06-5.57-27.25c2.42-5.28,6.94-7.43,12.73-5.86c6.5,1.76,11.72,5.7,16.78,9.86
			c4.63,3.81,8.83,8.08,13.36,12.99c-0.81-3.16-2.52-5.12-3.79-7.26c-6.29-10.55-12.17-21.27-14.61-33.44
			c-0.52-2.61-0.6-5.25-0.52-7.9c0.05-1.87,0.29-3.6,1.63-5.18c5.79-6.88,11.67-6.92,17.13,0.23c5.54,7.25,8.24,15.81,10.85,24.35
			c3.53,11.54,5.8,23.35,7.74,35.23c0.19,1.15,0.49,2.28,0.74,3.47c-0.02-0.01,0.03,0.01,0.08,0.04c-0.06-0.05-0.17-0.09-0.17-0.14
			c0.66-8.67,0.74-17.37,2.15-25.98c1.43-8.72,3.12-17.37,7.26-25.33c2.02-3.89,4.72-7.27,8.61-9.55
			c4.73-2.77,10.01-2.28,14.06,1.41c5.59,5.1,7.43,11.86,8.43,18.97c0.75,5.28,0.31,10.55-0.08,16.19c1.95-1.09,3.6-2.12,5.34-2.96
			c5.99-2.88,11.23-1.1,14.17,4.79c3.7,7.4,4.02,15.04,1.47,22.85c-1.22,3.74-2.68,7.39-4.63,10.82c-0.71,1.24-0.79,2.24-0.13,3.54
			c7.06,13.75,10.09,28.38,9.58,43.74c-0.01,0.25,0.06,0.5,0.19,1.49c2.18-5.57,3.06-10.72,3.86-15.88
			c1.67-10.7-0.16-21.31-0.86-31.94c-0.44-6.65-1.01-13.3,0.79-19.87c1.78-6.5,6.02-9.79,12.88-10.14
			c13.23-0.68,22.7,5.92,29.92,15.81c9.47,12.97,10.27,27.32,5.22,43.12c-1.14-2.63-1.94-4.52-2.77-6.4
			c-2.28-5.15-5.07-9.99-9.01-14.1c-2.49-2.6-5.36-4.66-8.92-5.66c-3.92-1.1-5.42-0.17-5.83,3.77c-0.5,4.79,0.23,9.58-0.12,14.39
			c-0.92,12.41-5.21,23.24-14.57,31.87c-0.2,0.18-0.3,0.46-0.57,0.9c6.42,2.53,13.06,3.63,19.77,4.15
			c24.26,1.88,47.91-0.61,70.38-10.4c10.16-4.43,19.1-10.53,24.99-20.16c5.57-9.11,5.65-18.75,2.75-28.65
			c-0.27-0.92-0.82-1.33-1.79-1.69c-5.49-2.03-8.99-8.77-7.6-14.37c0.94-3.8,4.67-5.11,7.86-2.56c3.98,3.18,5.73,7.42,5.18,12.48
			c-0.11,0.97-0.29,1.86,0.03,2.86c7.91,25.44-3.46,43.97-24.81,55.3c-13.61,7.23-28.36,10.76-43.56,12.63
			c-15.81,1.94-31.57,1.89-47.21-1.59c-1.64-0.37-3.29-0.74-4.93-1.1c-0.19-0.17-0.37-0.34-0.56-0.5c-0.02,0.07-0.07,0.19-0.06,0.2
			c0.21,0.1,0.44,0.18,0.66,0.26c0.58,1.68,2.13,2.41,3.44,3.35c15.6,11.13,33.2,17.59,51.91,21.31c15.56,3.1,31.2,4,46.74,0
			c11.46-2.95,21.07-8.64,26.98-19.26c0.92-1.65,1.16-3.01,0.18-4.87c-1.93-3.64-1.94-7.57-0.33-11.38
			c0.82-1.94,2.04-3.66,4.47-3.84c2.45-0.18,3.83,1.38,4.94,3.2c3.21,5.27,1.87,12.16-3.07,15.87c-0.6,0.45-0.9,1.01-1.19,1.64
			c-7.11,15.5-20.28,22.94-36.47,25.71c-23.94,4.1-46.89-0.46-69.3-8.73c-5.67-2.09-11.03-4.85-17.06-7.85
			c4.51,9.01,9.38,17,14.84,24.63c7.18,10.04,14.91,19.62,25.33,26.69c3.64,2.47,7.55,4.37,11.96,5.06c3.53,0.56,6.92,0.1,10.18-1.4
			c1.46-0.67,2.29-1.54,2.69-3.17c1.02-4.19,3.87-7,7.79-8.7c2.27-0.99,4.7-1.33,6.68,0.62c1.88,1.86,1.61,4.15,0.67,6.31
			c-2.12,4.84-5.59,8.04-11.22,8.32c-0.84,0.04-1.54,0.25-2.22,0.69c-7.74,5-15.6,4.36-23.5,0.44c-8.62-4.27-15.3-10.83-21.49-17.91
			c-3.04-3.48-5.86-7.14-9.1-11.11c1.42,6.36,2.7,12.32,2.37,18.44c-0.3,5.58-1.15,11-6.02,14.75c-4.86,3.74-10.37,4.09-16.15,2.66
			c-0.77-0.19-1.52-0.43-2.29-0.63c-0.06-0.02-0.16,0.09-0.39,0.23c2.22,4.88,1.93,9.85-0.23,14.67c-1.24,2.78-2.75,5.63-6.77,4.91
			c-1-0.18-1.33,0.67-1.86,1.22c-3.13,3.2-6.37,3.83-10.55,1.92c-4.91-2.24-8.54-6.04-11.96-10
			c-10.78-12.44-18.87-26.62-26.81-40.87c-2.7-4.84-5.19-9.79-7.77-14.68c0,0-0.08-0.07-0.08-0.07l0.08,0.08
			c5.23,15.81,11.44,31.25,17.8,46.64c5.52,13.34,11.33,26.55,18.85,38.95c1.02,1.68,2.1,3.33,3.28,4.9
			c1.16,1.55,2.02,3.9,4.59,1.04c1.3-1.44,3.61-0.85,5.31,0.16c4.81,2.86,7.31,7.19,7.42,12.63c0.09,4.36-3.39,6.31-7.38,4.45
			c-1.76-0.82-2.97-2.24-4.28-3.59c-13.8-14.27-21.55-31.99-29.31-49.7c-7.02-16.01-13.06-32.39-19.16-48.76
			c-0.17-0.45-0.41-0.87-0.62-1.31c-2.6-7.56-5.21-15.12-7.8-22.68c-0.25-0.72-0.21-1.87-1.09-1.88c-1.22-0.01-1.01,1.3-1.11,2.05
			c-0.83,6.08-1.58,12.16-2.35,18.25c-2.11,13.15-4.12,26.32-6.36,39.44c-3.19,18.63-6.62,37.23-12.35,55.32
			c-1.63,5.14-3.3,10.33-6.65,14.68c-1.91,2.47-4.28,4.57-3.53,8.14c0.12,0.59-0.15,1.46-0.55,1.93c-1.38,1.61-0.8,3.21-0.35,4.94
			c5.48,20.85,0.17,38.51-16.32,52.76c-11.29,9.77-24.73,15.56-38.94,19.77c-5.65,1.67-11.42,2.97-17.47,4.52
			c4,4.53,7.07,9.32,8.71,14.83c0.68,2.28,1.81,2.74,4.08,2.44c8.98-1.21,17.88-2.82,26.53-5.51c9.83-3.06,19.15-7.15,27.2-13.68
			c1.41-1.15,2.24-2.12,1.52-4.14c-1.04-2.92-0.27-5.86,1.18-8.49c1.94-3.51,4.09-6.92,9.16-5.54c0.26,0.07,0.63,0.06,0.83-0.07
			c1.12-0.74,1.37-5.93,0.36-6.95c-3.78-3.84-3.61-10.62,0.37-14.3c2.95-2.73,6.79-2.13,8.73,1.37c1.97,3.55,1.37,8.57-1.43,11.84
			c-0.63,0.73-1.58,1.23-1.71,2.33c-0.62,5.64-3.04,10.7-5.17,15.87c-1.23,2.99-2.72,5.63-5.6,7.34c-1.32,0.78-2.29,1.82-2.71,3.34
			c-2.7,9.73-3.99,19.58-2.46,29.64c2.43,15.99,11.45,27.88,24.27,37.31c4.6,3.38,9.45,6.42,14.78,8.77
			c0.86-2.01-0.36-3.41-0.95-4.89c-3.91-9.7-4.89-19.68-3.3-29.99c0.71-4.61,2.77-8.76,4.11-13.15c3.15-4.6,6.76-8.75,11.62-11.71
			c2.16-0.31,4.13-1.34,6.36-1.43c4.84-0.2,8.63,1.83,11.13,5.66c2.39,3.67,2.46,7.8,0.51,11.8c-1.18,2.43-3,4.23-5.91,4.32
			c-2.73,0.08-4.28-1.73-5.53-3.85c-0.25-0.42-0.49-0.84-1.02-1.76c-8.34,10.24-6.52,21.79-4.3,32.64
			c2.38,11.61,15.16,24.23,22.81,24.67c-2.06-4.66-4.06-9.22-5.36-14.03c-3.92-14.45-3.39-28.51,3.9-41.94
			c2.32-4.26,5.26-8.08,9.19-11.07c2.48-1.89,5.16-3.46,8.4-3.37c1.57,0.04,1.8-0.68,1.94-1.87c1.65-14.29,9.45-25.12,20.12-34.24
			c6.58-5.62,13.96-10.01,21.99-13.39c2.4-1.01,3.02-0.4,3.27,1.97c0.74,6.94-2.59,12.27-6.69,17.34c-3.04,3.75-6.29,7.35-9.2,11.19
			c-8.87,11.72-9.92,24.84-6.74,38.63c0.87,3.8,1.91,7.55,3.81,11.89c-2.99-21.34,4.59-38.56,17.9-53.61
			c8.31-9.4,19.09-15.03,31.92-15.93c8.13-0.57,10.03,2.32,6.78,9.64c-2.36,5.32-6.31,9.17-11.55,11.82
			c-5.93,3-11.73,6.24-17.74,9.09c-6.34,3-10.45,7.93-13.61,13.89c-4.61,8.71-7.88,17.91-10.42,27.42
			c2.89-5.15,5.76-10.3,9.08-15.19c4.79-7.04,10-13.75,17.36-18.37c5.72-3.59,12.07-5.46,18.93-5.46c2.05,0,3.95,0.55,5.72,1.48
			c5.35,2.81,6.24,9.54,1.75,13.49c-1.17,1.03-2.54,1.9-3.93,2.63c-1.32,0.69-1.58,1.48-1.15,2.85c3.29,10.55,3.21,21.23,1.22,31.99
			c-0.13,0.73-0.95,1.8,0.48,2.18c1.07,0.28,2.1,0.3,2.87-0.87c4.71-7.16,9.25-14.41,12.41-22.39c0.62-1.56,0.91-3.2,0.61-4.9
			c-2.05-11.93,2.14-22.36,8.07-32.35c0.95-1.61,2.35-2.92,3.98-3.92c4.76-2.93,10.68-0.56,11.94,4.8c1.3,5.53,0.21,10.96-1.2,16.26
			c-5.8,21.73-15.52,41.47-31.06,58.17c-2.7,2.9-5.74,5.42-9.01,7.68c-0.87,0.6-1.87,1.11-2.36,2.48c3.02,0.33,5.76-0.32,8.47-1.04
			c10.47-2.77,19.08-8.59,26.82-15.86c6.72-6.31,12.71-13.22,18.31-20.49c1.14-1.48,2.38-2.9,3.68-4.25c2.1-2.19,4.71-3.03,7.6-1.88
			c2.67,1.07,3.22,3.53,3.36,6.08c0.29,5.26-1.32,10.13-3.69,14.68c-9.57,18.34-24.5,29.52-45.56,31.93
			c-7.2,0.83-13.81-1.27-19.41-5.94c-0.91-0.75-1.45-1.12-2.35,0.01c-4.16,5.22-8.39,10.4-12.73,15.77
			c7.54,3.25,15.3,5.21,23.08,7.2c3.49,0.89,6.25,0.3,9.24-1.51c6.41-3.87,12.25-8.38,17.42-13.73c4.73-4.9,10.69-6.62,17.31-6.42
			c5.05,0.15,7.8,3.14,7.8,8.13c-0.01,4.13-1.45,7.87-3.42,11.43c-0.9,1.62-1.93,3.17-3.13,5.12c4.79-0.1,9.13-0.89,13.43-1.83
			c13.14-2.87,25.22-7.84,34.83-17.52c2.51-2.53,4.71-5.31,6.55-8.35c2.02-3.36,3.55-6.62,3.09-10.93
			c-0.62-5.88,1.41-11.41,5.09-16.19c1.14-1.48,2.53-3.01,4.71-2.46c2.3,0.58,2.95,2.65,3.05,4.61c0.43,7.91-0.89,15.24-7.73,20.54
			c-0.51,0.4-0.88,1.04-1.17,1.65c-8.61,18.08-23.71,28.17-42.66,33.47c-7.3,2.05-14.77,3.31-22.35,3.5
			c-3.67,0.09-6.32,1.9-9.05,3.68c-4.41,2.88-9.23,3.95-14.41,3.6c-10.04-0.68-20.04,0.59-30.19,0.84
			c5.17,2.6,10.38,5.12,15.49,7.82c11.45,6.03,22.33,12.86,31.32,22.25c0.82,0.86,1.62,1.24,2.86,1.04
			c12.86-2.07,23.91-7.7,33.49-16.31c1.03-0.92,1.45-2.07,1.92-3.25c1.84-4.6,4.75-8.37,8.99-11.05c1.77-1.11,3.76-2.11,5.86-0.79
			c2.02,1.27,1.87,3.41,1.51,5.32c-1.21,6.53-4.86,11.47-10.57,14.93c-0.92,0.56-2.1,1.23-3.09,0.85c-2.7-1.04-4.19,0.67-5.94,2.07
			c-8.61,6.88-18.28,11.68-29.23,13.94c13.99,21.44,2.24,43.27-12.44,53.35c0.86,1.29,2.34,1.67,3.58,2.31
			c9.38,4.85,19.03,8.93,29.71,10.1c19.45,2.12,32.97-7.61,36.86-26.61c0.51-2.49,0.91-5.02,1.16-7.55c0.3-3.08-0.19-5.83-1.55-8.9
			c-3.08-6.95-1.78-14.01,2.33-20.43c0.9-1.4,2.19-2.7,4.15-2.31c1.87,0.37,2.78,1.89,3.28,3.51c1.88,6.2,1.14,12.22-1.73,17.97
			c-0.68,1.36-1.1,2.65-1.15,4.17c-0.29,9.19-1.86,18.11-5.98,26.47c-7.59,15.37-22.44,22.64-40.35,19.87
			c-12.92-2-24.48-7.34-35.58-13.82c-1.83-1.07-3.48-1.6-5.59-1.01c-2.61,0.73-5.32,0.69-8.01,0.42c-7.03-0.72-11.17-6.51-9.3-13.2
			c0.34-1.2,0.34-1.91-0.63-2.79c-6.21-5.53-11.7-11.71-17.06-18.74c-0.41,4.01-0.17,7.57-0.91,11.04
			c-1.25,5.9-3.63,11.13-8.3,15.25c-1.9,1.68-3.6,1.69-5.62,0.45c-4.36-2.66-6.44-6.83-7.74-11.45
			c-3.02-10.75-2.63-21.74-2.04-32.71c0.41-7.63,1.18-15.24,1.76-22.86c0.05-0.66,0-1.39-0.22-2.01c-1.97-5.53-4-11.04-6.12-16.86
			c-4.27,4.66-8.51,9.11-12.52,13.77c-1.37,1.59-0.78,3.9-0.36,5.68c1.73,7.4,0.91,14.99,2.21,22.44
			c3.5,20.07,8.31,39.72,17.93,57.92c4.02,7.61,8.9,14.62,15.76,20.09c10.74,8.56,23.99,8.98,35.41,1.21
			c1.01-0.69,1.38-1.59,1.86-2.53c1.96-3.84,4.85-6.69,9.11-7.94c3.49-1.02,5.78,0.96,5.25,4.43c-0.95,6.12-7.4,11.15-13.58,10.48
			c-1.03-0.11-1.74,0.32-2.48,0.76c-17.06,10.1-32.58,5.96-44.86-8.28c-8.7-10.09-14.1-21.97-18.5-34.32
			c-4.9-13.72-8.1-27.85-10.16-42.24c-0.17-1.15-0.39-2.3-0.63-3.66c-2.09,1.01-3.92,2.24-6.16,2.38c-1,0.06-1.24,0.8-1.36,1.64
			c-3.21,22.3-6.95,44.56-6.07,67.22c0.15,3.86,1.04,7.56,3.08,10.93c0.67,1.11,1.45,2.12,2.48,2.91c2.22,1.69,4.07,1.2,5.04-1.37
			c1.3-3.47,3.18-6.54,6.22-8.79c1.29-0.95,2.7-1.83,4.39-0.92c1.53,0.82,1.75,2.31,1.67,3.82c-0.28,5.4-2.77,9.74-6.91,13.15
			c-1.49,1.22-3.27,1.98-5.17,0.6c-0.63-0.45-1.29-0.44-1.99-0.31c-3.59,0.65-6.11-0.95-8.17-3.67c-3.16-4.16-4.43-8.94-4.78-14
			c-0.97-13.95,0.4-27.8,2.09-41.62c1.12-9.14,2.47-18.25,3.82-27.36c0.28-1.91,0.11-3.12-2.13-3.64c-3.12-0.73-5.45-3.08-8.35-4.32
			c-2.99-3.35-3.49-3.22-5.67,0.7c-2.61,4.7-5.39,9.3-8.15,13.92c-5.63,9.39-11.48,18.64-17.58,27.73
			c-0.16,0.17-0.32,0.34-0.48,0.52c0,0,0.06-0.07,0.06-0.07c-2.61,3.46-5.23,6.92-7.84,10.39c-2.9,3.21-5.95,6.26-9.57,8.69
			c-0.77,0.52-1.25,1.24-1.53,2.1c-2.18,1.1-3.81,3.06-6.28,3.74c-3.91,1.07-6.31-1.03-5.53-4.97c1.06-5.32,5.74-9.6,11.71-10.71
			c0.9,0.59,1.86,1.11,2.68,1.79c0.7,0.58,1.31,0.52,1.8-0.05c2.51-2.97,5.68-5.43,7.21-9.15c0.65,0.16,0.86-0.38,1.12-0.74
			c6.05-8.41,12.04-16.86,16.93-26.01c0.03-0.09,0.06-0.18,0.09-0.27c0.13-0.26,0.27-0.52,0.4-0.78c0.68,0.19,0.82-0.35,1.06-0.76
			c4.11-6.99,8.17-14,12.34-20.96c1.17-1.95,0.28-2.99-1.27-3.95c-3.08-4.96-5.59-10.18-7.14-16.69
			c-4.51,9.06-8.78,17.21-13.66,25.02c-0.78,1.25-0.08,1.94,0.81,2.7c2.35,2.05,5.28,1.79,8.65,1.89
			c-5.02,7.53-9.9,14.33-19.55,15.31c-1.44-0.83-2.74-0.92-3.92,0.5c-2.55,3.07-5.13,6.1-7.71,9.14c-0.82,0.69-1.68,1.35-2.46,2.09
			c-4.9,4.64-10.18,8.77-16.39,11.63c-11.31,5.22-23.63,3.69-31.31-4.12c-5.87-5.97-8.34-13.42-8.9-21.58
			c-0.07-1.06,0.09-2.1-0.49-3.14c-3.19-5.67-1.93-11.16,0.91-16.5c0.79-1.49,2.04-2.87,3.97-2.61c1.93,0.26,2.7,1.89,3.13,3.55
			c1.27,5,0.53,9.79-2.23,14.11c-1,1.57-1.28,3.03-1.04,4.69c0.28,1.93,0.59,3.88,1.11,5.76c3.72,13.52,15.74,20.56,29.16,16.66
			c10.34-3.01,18.26-9.56,24.59-18.04c5.15-3.61,5.59-5.24,2.73-9.24c-1.11-1.55-1.89-1.36-2.75,0.11
			c-1.66,0.21-2.75,1.46-4.11,2.22c-8.06,4.5-15.03,3.28-20.97-3.68c-1.89-2.22-3.23-4.69-4.13-7.42
			c-1.61-4.92-2.28-10.01-1.63-15.08c0.43-3.3-0.82-3.57-3.58-3.54c-8.08,0.11-16.1-0.58-24.01-2.29
			c-8.23-1.78-16.05-4.53-23.06-9.27c-10.55-7.13-16.42-17.07-18.2-29.44c-0.31-2.14-0.8-4.01-2.26-5.85
			c-2.76-3.5-3.16-10.59,0.7-15.12c2.21-2.59,5.87-2.34,7.49,0.64c2.62,4.81,2.98,10.25-0.62,14.84c-0.96,1.23-1.23,2.25-0.99,3.71
			c2.1,13.01,9.11,22.62,20.84,28.78c13.48,7.07,28.15,8.65,43.15,8.46c1.64-0.02,1.89-0.97,2.21-2.19
			c1.52-5.83,3.95-11.28,7.13-16.42c1.8-2.91,1.81-2.94-1.69-3.27c-9.76-0.93-19.29-2.91-28.4-6.49
			c-21.39-8.41-35.04-22.92-36.96-46.39c-0.18-2.17-0.91-2.25-2.75-1.69c-8.86,2.71-17.62,2.41-26.3-0.93
			c-8.39-3.23-15.45-8.4-22.07-14.26c-0.85-0.75-1.51-1.8-3.03-1.38c-7.79,2.16-13.73-1.27-19.06-6.3
			c-1.21-1.14-2.76-2.15-3.09-4.16c3.1-0.14,5.89-0.71,8.39-2.31c1.61-1.04,2.05-1.94,0.63-3.71c-4.45-5.53-8.39-11.42-12.18-17.41
			c-0.33-0.52-0.49-1.35-1.47-1.18c-1.22,2.78-1.93,5.76-3.51,8.4c-1.58,2.63-3.31,5.14-5.42,7.36c-1.3,1.37-0.4,2.22,0.36,3.25
			c7.61,10.42,15.37,20.72,23.89,30.44c4.81,5.49,9.69,10.93,15.67,15.25c0.71,0.51,1.29,1.44,2.54,0.51
			c3.71-2.76,7.01-2.62,11.04,0.26c3.7,2.64,5.19,6.15,3.68,8.65c-1.53,2.53-5.53,3.1-9.42,0.7c-5.87-3.62-11.94-6.93-16.94-11.85
			c-11.87-11.68-21.88-24.84-31.84-38.05c-3.76-4.99-3.74-5.01-8.16-0.3c-0.07,0.07-0.1,0.17-0.14,0.26
			c-3.05,1.58-6.08,3.21-9.17,4.73c-1.06,0.52-1.02,1.22-0.87,2.16C527.02,1031.89,528.39,1040.66,529.76,1049.42z M857.71,1129.37
			c-0.21-0.21-0.41-0.42-0.62-0.63c-4.65-3.03-9.3-6.07-13.95-9.1c4.21,3.71,8.73,6.96,13.98,9.07c0.2,0.21,0.41,0.42,0.61,0.63
			l0.06,0.09C857.8,1129.43,857.71,1129.37,857.71,1129.37z M470.61,1001.74l-0.06,0.07
			C470.55,1001.81,470.61,1001.74,470.61,1001.74z M468.8,1002.88c-0.52,0.68-1.52,0.92-1.73,1.87c-1.51,0.29-2.51,1.38-3.64,2.26
			c-0.62,0.37-1.24,0.74-1.87,1.11c-2.98,2.02-5.95,4.04-8.93,6.06c3.01-1.97,6.89-2.77,8.89-6.1c1.03,0.29,1.63-0.11,1.85-1.11
			c1.61-0.13,2.41-1.54,3.64-2.27c0.59-0.6,1.17-1.2,1.76-1.8l0.11-0.07L468.8,1002.88z M779.96,1106.39c-3.15,0-6.29,0-9.98,0
			c2.08,2.78,3.21,5.52,6.18,6.64c2.23,2.27,2.87,2.19,3.97-0.58c0.57-1.44,1.66-2.62,1.93-4.22c0.13-0.76,1.61-1.34,0.67-2.19
			C781.93,1105.32,780.87,1106.07,779.96,1106.39z M514.21,964.13l-0.12-0.15l0.16,0.11c0.65,2.42,2.5,4.17,3.65,6.31
			c0.39,0.72,1.05,0.87,1.78,0.57c2.57-1.07,5.13-2.17,7.69-3.26C522.72,966.7,518.64,964.71,514.21,964.13z M565.57,983.51
			c0.06,0.01,0.11,0.03,0.17,0.04c-0.07,0-0.13,0-0.2,0c-0.77-4.3-3.44-7.69-5.48-12.06c-0.5,1.5-0.78,2.32-1.03,3.14
			C556.56,982.6,556.84,982.97,565.57,983.51z M530.8,989.08c0.28,0.62,0.58,1.22,0.84,1.85c1.03,2.48,2.45,2.44,4.49,0.96
			c2.59-1.88,4.55-4.2,6.47-7.02c-4.21,0.41-8.05,0.78-11.89,1.16c-0.66-0.33-1.55-0.48-1.72,0.29
			C528.69,987.65,529.7,988.46,530.8,989.08z M723.55,1142.84c0.16-0.05,0.27-0.14,0.35-0.29c1.67-7.25,2.3-14.7,4.77-22.37
			c-1.94,1.2-3.8,0.48-5.23,1.58c-3.62,0.53-7.24,1.08-10.86,1.58c-1.09,0.15-1.3,0.72-1,1.64c2.27,7.1,5.12,13.81,12.04,17.87
			l-0.2,0.07L723.55,1142.84z M734.8,1072.74c7.49-2.74,14.91-5.73,22.94-6.98c-7.7-0.48-15.34-0.97-22.99,0.1
			c-3.9,0.22-7.92-0.61-11.65,1.24c-4.96,0.67-9.07,3.28-13.31,5.6c-4.37,2.4-7.66,6.28-12.06,8.61c-3.11,1.64-6.5,4.25-9.91,1.6
			c-3.5-2.72-2.75-6.93-1.75-10.67c1.77-6.58,6.25-11.25,11.76-15.05c6.23-4.3,13.26-6.41,21.81-6.96
			c-32.2-16.72-46.91-41.32-39.12-77.24c-4.53,2.74-8.38,5.13-12.53,6.99c-12.9,5.79-26.52,8.87-40.51,10.51
			c-2.13,0.25-3.18,0.63-2.91,3.12c0.48,4.43-0.23,8.79-1.67,13.02c-4.29,12.63-17.42,18.58-29.41,13.32
			c-3.85-1.69-3.71-1.58-6.35,1.69c-1.25,1.55-1.12,2.3,0.29,3.49c4.01,3.39,8.08,6.67,12.65,9.3c10.12,5.82,20.69,7.86,32.03,3.7
			c1.8-0.66,2.7-1.6,2.75-3.62c0.14-4.91,1.08-9.73,2.29-14.49c0.35-1.36,0.3-2.53-0.34-3.91c-2.9-6.27,1.68-14.91,8.37-15.93
			c0.91-0.14,1.35-0.52,1.84-1.2c2.6-3.64,5.83-3.48,7.97,0.49c2.33,4.32,2.82,8.76-0.07,13.08c-0.53,0.79-0.71,1.57-0.77,2.46
			c-0.72,9.88-5.23,17.74-13.29,23.58c-1.5,1.09-1.89,2.25-1.76,3.96c1.07,14.3,7.18,25.94,18.95,34.5
			c14.38,10.45,31.02,14.15,48.45,15.42c0.82,0.06,1.61,0.03,2.19-0.65c4.26-4.97,9.65-8.7,14.65-12.85
			C727.15,1076.9,730.98,1074.82,734.8,1072.74z M723.34,1098.44c-1.83-0.13-3.94-0.97-5.29,0.74c-3.97,5.03-6.65,10.65-7.24,17.09
			c-0.08,0.87-0.17,1.92,1.3,1.65c3.79-0.71,7.7-0.81,11.32-2.28c1.46-0.18,2.95-0.25,4.38-0.57c1.5-0.34,3.04-0.62,3.75-2.39
			c1.15-2.88,2.48-5.68,3.74-8.51c1.35-2.35,2.69-4.69,4.44-7.75c-2.05,0.68-3.56,0.12-4.78,1.26
			C731.06,1097.52,727.17,1097.5,723.34,1098.44z M734.76,1083.56c-3.81,1.47-6.13,4.86-9.38,7.06c-0.33,0.23-0.6,0.85-0.55,1.25
			c0.09,0.8,0.86,0.59,1.42,0.64c3.01,0.26,5.88-0.66,8.82-1c1.72,0.46,3.33-0.33,5-0.47c1.42-0.12,3.06,0.07,4.05-1.37
			c5.08-7.42,10.97-14.18,17.99-21.08c-5.73,2.16-10.48,4.33-15.04,6.91C742.8,1077.92,738.29,1080.01,734.76,1083.56z
			 M713.04,732.7c-2.62,2.96-4.67,6.32-6.86,9.58c-7.79,11.58-15.13,23.49-24.55,33.89c-6.95,7.68-14.11,15.47-26.29,14.13
			c0.85,2.85,1.48,5.62,1.51,8.47c0.08,7.99,5.9,11.65,13.32,8.34c4.51-2.01,8.19-5.15,11.6-8.6c9.74-9.82,17.27-21.19,23.73-33.27
			c3.8-7.09,7.49-14.25,9.22-22.19c-0.03,0.32-0.13,0.37-0.27,0.14c-0.04-0.07-0.06-0.18-0.05-0.26c0.55-3.13,1.11-6.26,1.63-9.39
			c0.17-1.03,0.5-2.38-0.71-2.82C713.75,730.13,713.55,731.72,713.04,732.7z M753.31,793.54c6.36,10.17,12.47,19.77,20.78,27.78
			c1.71,1.64,3.55,3.14,5.78,4.09c4.64,1.98,7.76-0.09,7.81-5.09c0.06-5.42,1.13-10.46,6.39-13.73c-4.5-2.71-8.53-5.7-11.69-9.69
			c-1.61-2.03-2.92-4.21-3.42-6.76c-0.15-0.75-0.34-1.71,0.29-2.24c0.78-0.64,1.45,0.22,2.11,0.58c4.62,2.5,9.2,5.1,14.52,5.91
			c4.59,0.7,7.25-1.4,7.6-5.99c0.29-3.87-0.34-7.65-1.51-11.3c-5.24-16.32-12.19-32.09-16.38-48.75c-0.26-1.05-0.65-1.51-1.84-1.16
			c-1.36,0.4-1.3,1.18-0.94,2.26c1.9,5.8,3.01,11.77,3.53,17.83c1.25,14.7-2.38,27.83-13.25,38.43
			C767.86,790.81,762.16,795.22,753.31,793.54z M830.38,1117.51c-0.32,1.57,0.48,2.65,0.9,3.81c3.31,9.14,6.34,18.36,8.37,27.86
			c0.34,1.57,0.86,2.99,1.75,4.31c5.65,8.46,12.12,16.26,19.59,23.24c3.3,3.08,3.31,3.08,7.15,0.6c4.24-2.74,9.03-4.67,12.72-8.18
			c4.15-3.95,7.54-8.62,5.6-14.56c-2.04-6.24-6.09-11.31-12.99-12.93c-11.5-2.7-21.94-7.49-31.44-14.36
			C837.94,1124.35,834.24,1120.95,830.38,1117.51z M479.01,1001.81c-1.46,1.29-2.35,2.07-3.23,2.86
			c-12.4,11.06-26.36,19.62-42.37,24.49c-5.49,1.67-9.47,4.79-12.93,8.85c-5.54,6.5-4.34,13.06,3.11,17.43
			c1.86,1.09,3.95,1.84,5.97,2.64c2.86,1.13,5.87,1.95,8.6,3.33c1.86,0.94,2.97,0.62,4.41-0.62c8.64-7.45,16.33-15.75,23.17-24.83
			c0.65-0.87,1.26-1.75,1.55-2.82C470.09,1022.59,474.3,1012.56,479.01,1001.81z M831.39,1006.81c-7.54,4.27-14.28,8.94-21.06,13.54
			c-1.23,0.83-3.03,1.5-3.46,2.64c-0.53,1.43,1.57,2.37,2.2,3.73c0.25,0.53,0.66,1.02,0.79,1.57c0.42,1.7,1.4,2,3.08,1.7
			c4.75-0.86,9.52-0.75,14.17,0.6c3.54,1.03,6.94,2.62,7.78,6.51c0.92,4.25-0.75,7.85-4.15,10.67c-3.44,2.85-7.52,4.36-11.77,5.42
			c-1.77,0.44-2.43,0.95-2.04,2.92c0.69,3.45,1.27,6.97,1.36,10.47c0.1,3.81,1.85,6.04,5.19,7.7c1.88,0.94,2.52,0.9,3.34-1.14
			c3.66-9.11,7.44-18.34,13.96-25.78c4.06-4.63,3.63-8.81,1.93-13.66c-0.58-1.66-1.3-3.28-2-4.9
			C837.61,1021.62,832.63,1015.25,831.39,1006.81z M777.71,729.87c1.79-3.1,1.47-5.83,0.9-8.53c-0.67-3.16-1.4-6.31-2.33-9.4
			c-3.03-10.06-6.98-19.77-11.91-29.09c-0.78-1.48-1.43-1.6-2.94-0.92c-2.27,1.03-2.16,3.16-2.75,4.91
			c-5.45,16.33-14.95,29.28-31.3,36.56c-0.31,0.14-0.81,0.24-0.57,1.1c2.76-0.22,5.59-0.43,8.41-0.68
			c9.31-0.84,18.53-2.59,27.89-2.81C769.7,720.86,775.92,721.57,777.71,729.87z M505.45,915.86c-8.4-3.85-16.55-7.45-24.89-10.63
			c-1.47-0.56-1.69,0.18-1.92,1.23c-0.81,3.7-2.73,6.9-4.65,10.12c-3.42,5.73-7.21,11.27-8.9,17.86c-0.58,2.27-0.68,4.1,1.56,5.65
			c1.35,0.94,2.38,2.34,3.51,3.58c5.22,5.74,9.1,12.33,12.61,19.16c0.33,0.65,0.4,1.61,1.43,1.68c1.45,0.1,6.95-4.41,7.22-5.91
			c0.65-3.66,1-7.41,2-10.97c0.86-3.05-0.39-3.38-2.93-3.56c-3.98-0.27-7.9-1.03-11.4-3.09c-6.05-3.55-6.11-9.91-0.16-13.65
			c4.27-2.68,9.17-4.15,13.99-4.05c5.59,0.11,9.35-1.55,11.76-6.39C504.8,916.63,505.02,916.42,505.45,915.86z M780.1,1007.97
			c-1.62,3.39-3.15,6.45-5.42,9.05c-2.64,3.02-4.39,6.49-5.63,10.26c-3.14,9.53-3.66,19.4-3.95,29.3c-0.03,1.11-0.64,2.49,1.31,3.07
			c1.71,0.5,2.5-0.13,3.45-1.34c4.71-5.98,9.68-11.92,16.21-15.88c6.34-3.85,10.7-8.58,12.16-15.78c0.04-0.19,0.13-0.38,0.24-0.54
			c1.2-1.8,0.36-2.47-1.45-2.97c-4.95-1.37-8.84-4.31-12.15-8.12C783.09,1012.95,781.81,1010.55,780.1,1007.97z M548.98,935.77
			c-0.23-2.77-0.38-6.2-0.82-9.59c-1.04-8.11-3.18-15.75-9.99-21.28c-1.38-1.12-2.42-2.6-3.21-4.19c-0.77-1.54-1.41-1.56-2.34-0.08
			c-4.3,6.78-10.18,11.7-17.89,14.34c-1.64,0.56-1.33,1.21-0.91,2.53c1.99,6.17,5.41,10.81,12.25,12.2
			c0.19,0.04,0.36,0.17,0.53,0.26c6.35,3.16,12.03,7.24,17.1,12.13c1.28,1.23,2.44,1.29,4,0.76c1.64-0.56,1.22-1.79,1.27-2.9
			C549.01,938.77,548.98,937.6,548.98,935.77z M714.16,723.4c0.07-1.54-0.77-2.56-1.28-3.67c-4.62-10.07-9.15-20.17-13.01-30.56
			c-2.2-5.91-2.15-5.84-7.73-2.67c-4.49,2.56-8.94,5.07-11.91,9.5c-0.85,1.27-1.03,2.09,0.06,3.26
			c6.72,7.22,13.58,14.29,22.03,19.62C705.92,721.15,709.71,722.98,714.16,723.4z M720.65,677c-0.46-0.9-0.85-1.68-1.24-2.45
			c-0.72-1.43-1.34-2.82-3.52-1.94c-2.02,0.82-1.53,2.17-1.21,3.63c1.8,8.24,2.87,16.58,3.46,24.99c0.39,5.51,0.21,11.03,0.39,16.98
			c0.43-0.61,0.63-0.81,0.72-1.05c4.41-12.17,8.99-24.27,14.26-36.1c0.58-1.31,0.26-1.88-0.83-2.59c-2.91-1.89-5.62-4.05-8.11-6.45
			c-1.18-1.14-1.91-1.21-2.45,0.46C721.67,673.93,721.18,675.38,720.65,677z M771.86,1066.55c-2.44-0.03-7.86,2.87-8.26,4.57
			c-1.12,4.7-3.17,9.05-5.05,13.47c-0.35,0.83-1.26,1.9,0.01,2.57c1.11,0.58,2.07-0.15,2.78-1.07c0.36-0.47,0.67-0.97,1.04-1.43
			c3.53-4.43,7.84-5.59,13.19-3.52c0.94,0.36,1.79,0.74,2.85,0.35c5.98-2.17,11.81-4.66,17.36-7.75c0.7-0.39,1.45-0.78,1.09-1.8
			c-0.28-0.8-0.32-1.79-1.51-1.93C787.46,1069.09,779.6,1067.96,771.86,1066.55z M542.27,949.57c-3.08,0.81-6.42,1.73-9.79,2.56
			c-5.01,1.24-10.03,2.46-15.06,3.6c-1.36,0.31-2.56,0.62-2.69,2.22c-0.13,1.65,1.44,1.38,2.29,1.68
			c5.06,1.78,10.33,2.81,15.57,3.95c1.96,0.43,3.68,0.2,5.42-0.74c2.24-1.22,4.69-1.55,7.22-1.25c2.8,0.34,5.08,1.67,6.92,3.68
			c1.01,1.1,2.23,1.59,3.39,0.82c1.35-0.89,0.02-1.92-0.39-2.79c-1.25-2.66-2.73-5.22-3.89-7.92
			C549.6,951.52,546.87,949.59,542.27,949.57z M726.57,662.88c3.67-2.3,7.26-4.77,11.04-6.87c5.88-3.27,10.21-7.92,13.6-13.59
			c2.5-4.17,2.6-4.11-1.4-7.09c-0.48-0.35-0.93-0.73-1.4-1.09c-4.53-3.53-6.86-3.28-10.3,1.38
			C732.12,643.74,729.75,653.41,726.57,662.88z M575.43,971.98c3.37,4.6,6.11,8.78,8.36,13.25c0.54,1.08,1.33,1.22,2.36,1.32
			c5.85,0.57,11.71,0.53,17.57,0.63c1.93,0.03,2.39-0.64,2.11-2.43c-0.8-5.16-3.44-9.31-6.97-13.03c-0.56-0.59-1.16-1-2.07-0.9
			C589.91,971.58,582.99,971.87,575.43,971.98z M592.5,966.24c-12.39-8.82-25.94-12.83-39.97-15.78c6.64,4.77,12.83,10,18.32,16
			c0.59,0.65,1.38,0.69,2.19,0.68C579.28,967.1,585.53,967.08,592.5,966.24z M590.65,1011.6c7.45-4.44,11.49-10.72,14.16-18.04
			c0.55-1.51-0.48-1.56-1.58-1.59c-4.86-0.09-9.72-0.15-14.58-0.35c-1.7-0.07-1.8,0.4-1.29,1.83
			C589.39,999.1,590.64,1004.9,590.65,1011.6z M768.72,754.36c-11.11-2.43-19.65-8.54-28.97-13.06c6.1,7.88,12.7,15.24,17.63,23.59
			C761.11,761.43,764.63,758.16,768.72,754.36z M854.3,1092.97c-7.86-2.09-14.87-4.18-21.63-7.03c-0.7-0.29-1.31-0.35-1.9,0.23
			c-1.73,1.73-4.51,3.47-4.44,5.57c0.08,2.35,3.2,3.37,5.55,4.23c1.6,0.58,3.24,0.89,4.95,0.93
			C842.72,1097.05,848.2,1095.45,854.3,1092.97z M453.83,984.1c6.63,1.56,13.23,2.35,19.91,0.74c3.02-0.73,5.74-2.02,8.18-3.99
			c1.65-1.34,1.55-2.16-0.17-3.22c-1.08-0.67-2.03-1.56-3.02-2.37c-0.67-0.55-1.33-0.73-2.18-0.34
			C469.17,978.4,461.55,981.3,453.83,984.1z M756.49,1110.88c-3.57,1.46-6.3,2.64-9.07,3.69c-1.16,0.44-1.73,1.17-2.03,2.3
			c-0.94,3.6-1.93,7.2-2.26,10.92c-0.21,2.32-0.54,4.68,0.27,7.43C748.21,1127.27,752.36,1119.53,756.49,1110.88z M557.21,986.89
			c4.19,7.16,8.62,13.54,13.79,20.18c1.07-6.35-0.62-11.7-2.39-17.05c-0.22-0.67-0.8-0.83-1.37-0.96
			C564.07,988.36,560.9,987.69,557.21,986.89z M639.18,1034.32c6.53-5.73,10.14-12.01,10.61-19.93c0.01-0.1-0.01-0.19-0.01-0.29
			c-0.01-0.79-0.46-1.33-1.15-1.54c-0.77-0.23-0.95,0.55-1.21,1c-1.17,1.98-2.64,3.65-4.78,4.67c-0.46,0.22-0.83,0.51-0.95,1.04
			C640.58,1023.96,639.58,1028.68,639.18,1034.32z M754.19,1093.99c-2.38,5.07-4.35,9.55-6.08,14.81c2.92-1.27,5.16-2.26,7.41-3.21
			c1-0.42,1.23-1.05,0.96-2.09C755.72,1100.59,755.06,1097.65,754.19,1093.99z M797.72,1078.55c-4.73,2.24-8.7,4.12-13.11,6.22
			c2.68,1.02,4.88,1.86,7.09,2.68c0.81,0.3,1.48,0.33,1.95-0.65C794.84,1084.25,796.13,1081.75,797.72,1078.55z M785.95,1111.4
			c2.63-0.99,4.96-2.23,6.56-4.42c0.45-0.61,0.91-1.3,0.37-2.15c-0.59-0.92-1.32-0.5-2.09-0.35
			C786.96,1105.26,787.45,1108.97,785.95,1111.4z M783.23,1062.22c0.02,0.16,0.04,0.32,0.06,0.48c3.03,0.44,6.05,0.93,9.09,1.29
			c0.66,0.08,1.92,0.68,2.02-0.33c0.14-1.3-0.24-2.71-0.66-3.98c-0.32-0.94-1.23-0.29-1.8-0.12
			C789.02,1060.4,786.13,1061.33,783.23,1062.22z M517.38,950.74c4.19-1,8-1.91,11.82-2.82c-2.32-0.86-4.54-1.16-6.78-1.42
			C518.17,946,518.16,946,517.38,950.74z M808.85,1092.39c-2.29-2.95-4.23-5.45-6.26-8.06c-2.05,6.13-1.91,6.39,3.98,7.72
			C807.14,1092.19,807.73,1092.23,808.85,1092.39z M508.45,969.55c-2.37,2.77-4.52,5.28-6.95,8.12c1.63-0.51,2.84-0.87,4.04-1.27
			C510.21,974.8,510.21,974.79,508.45,969.55z M749,786.3c0-2.5,0.45-4.32-0.13-5.75c-0.58-1.44-2.16-2.49-3.31-3.71
			c-1.05-1.11-2.11-2.21-3.17-3.32c-0.13,0.16-0.26,0.31-0.4,0.47C744.19,777.85,746.39,781.72,749,786.3z M490.13,967.41
			c-1.59,1.77-4.2,1.41-3.69,3.78c0.53,2.43,1.5,4.77,2.37,7.41C489.24,974.96,489.63,971.63,490.13,967.41z M820.87,1091.57
			c0.78-2.86,1.11-5.01,1.95-6.95c1.3-2.98-0.22-3.89-2.95-4.6C820.2,1083.78,820.5,1087.26,820.87,1091.57z M523.62,990.72
			c1.16,0.06,1.85-0.24,1.34-1.13c-0.67-1.16-1.44-2.39-2.48-3.2c-1-0.78-2.63-1.08-3.43,0.24c-0.84,1.39,0.21,2.33,1.56,2.86
			C521.72,989.93,522.81,990.39,523.62,990.72z M665.29,725.87c-3-1.33-5.75-2.56-8.51-3.79c-0.42-0.19-0.91-0.6-1.24,0.02
			c-0.27,0.52,0.07,0.98,0.56,1.16C659.03,724.3,661.83,725.76,665.29,725.87z M820.17,1109.61c0.99-3.37-0.39-5.37-2.61-7.7
			C818.49,1104.66,819.23,1106.84,820.17,1109.61z M491.69,987.93c-1.49,1.65-3.95,3.1-2.36,6.17
			C490.16,991.93,490.92,989.93,491.69,987.93z M841.83,1119.07c0.03-0.14,0.12-0.33,0.07-0.41c-0.09-0.13-0.29-0.26-0.44-0.25
			c-0.3,0.02-0.3,0.16-0.05,0.32C841.57,1118.82,841.69,1118.95,841.83,1119.07z"/>
		<polygon class="st1" points="723.61,1142.87 723.55,1142.84 723.41,1142.94 		"/>
		<path class="st1" d="M753.79,1157.95c0.06-0.08,0.1-0.18,0.09-0.27C753.85,1157.77,753.82,1157.86,753.79,1157.95z"/>
	</g>
	<g>
		<path class="st2" d="M1202.18,703.05c-0.95,17.03-2.32,28.83-3.93,42.64c-2.03,17.28-3.89,28.94-9.06,43.04
			c-5.23,14.27-7.95,21.42-14.46,22.85l-0.03,0.03c-9.52,2.07-15.93-8.7-54.14-34.57c-22.44-15.19-43.67-27.36-51.81-31.96
			c-3.53-1.98-6.25-3.45-8.05-4.45c-12.66-6.98-24.66-13.24-56.66-29.23c-13.54-6.75-10.63-5.25-16.09-8.01
			c-32.94-16.6-29.9-16.22-45.47-23.63c-8.21-3.93-22.01-10.19-35.2-18.83c-2.98-1.95-8.34-5.63-10.21-11.43
			c-1.21-3.76-0.46-7.03,0.65-10.48c3.86-11.69,10.76-20.27,11.25-20.87c1.7-2.12,0.56-0.89,20.41-42.52
			c5.69-11.89,9.16-19.12,13.18-27.25c3.04-6.2,5.2-10.45,7.39-14.9c4.42-8.79,1.18-2.38,21.13-42.32
			c4.58-9.13,17.24-34.43,21.33-42.69c1.37-2.73,8.54-17.08,9.81-19.61c1.96-3.96,9.91-19.78,11.81-23.57
			c7.13-14.27,16.29-32.53,21.56-42.98c6.84-13.58,13.64-27.1,20.48-40.69c1.9-3.76,3.83-7.55,5.72-11.34
			c9.16-18.32,11.68-23.86,16.75-32.13c7.79-12.69,11.87-19.41,16.68-19.18c4.74,0.23,7.29,7.18,12.17,19.32
			c5.72,14.33,12.5,28.43,18.02,42.81c8.57,22.42,8.37,18.66,17.3,41.86c7.98,20.9,13.12,36.92,15.01,42.84
			c4.48,14.24,7.16,24.32,12.04,42.87c2.68,10.19,6.25,23.63,10.37,41.6c2.09,8.99,5.4,23.4,9,42.55c4.15,22.4,6.51,39.16,7,42.84
			c2.94,21.71,4.29,38.07,4.64,42.18c1.7,21.22,2.03,37.3,2.13,41.92C1203.29,680.8,1202.51,696.94,1202.18,703.05z"/>
		<path class="st2" d="M406.78,649.51c-1.9,5.8-7.23,9.48-10.24,11.43c-13.18,8.64-26.95,14.9-35.16,18.83
			c-15.57,7.41-12.56,7.03-45.47,23.63c-5.46,2.76-2.58,1.26-16.09,8.01c-31.99,15.99-44.03,22.25-56.66,29.23
			c-1.8,1-4.51,2.47-8.05,4.45c-8.14,4.59-29.37,16.77-51.85,31.96c-38.17,25.87-44.58,36.64-54.1,34.57l-0.03-0.03
			c-6.51-1.44-9.26-8.58-14.46-22.85c-5.17-14.1-7.03-25.75-9.06-43.04c-1.6-13.81-2.98-25.61-3.93-42.64
			c-0.33-6.12-1.11-22.25-0.75-43.3c0.1-4.62,0.43-20.7,2.13-41.92c0.33-4.11,1.67-20.47,4.65-42.18c0.49-3.68,2.85-20.44,7-42.84
			c3.6-19.15,6.9-33.56,8.96-42.55c4.15-17.97,7.72-31.41,10.4-41.6c4.87-18.55,7.56-28.63,12.04-42.87
			c1.86-5.91,7-21.94,15.01-42.84c8.93-23.2,8.73-19.44,17.3-41.86c5.5-14.38,12.3-28.48,18.02-42.81
			c4.87-12.15,7.43-19.09,12.17-19.32c4.78-0.23,8.9,6.49,16.68,19.18c5.04,8.27,7.56,13.81,16.72,32.13
			c1.93,3.79,3.86,7.58,5.76,11.34c6.8,13.58,13.64,27.1,20.44,40.69c5.27,10.45,14.43,28.71,21.56,42.98
			c1.93,3.79,9.85,19.61,11.81,23.57c1.28,2.53,8.47,16.88,9.81,19.61c4.12,8.27,16.78,33.56,21.36,42.69
			c19.92,39.94,16.68,33.54,21.13,42.32c2.19,4.45,4.35,8.7,7.39,14.9c4.02,8.13,7.49,15.36,13.18,27.25
			c19.86,41.63,18.68,40.4,20.41,42.52c0.49,0.6,7.39,9.19,11.25,20.87C407.24,642.47,407.99,645.74,406.78,649.51z"/>
		<path class="st2" d="M1192.89,1000.65c-1.93,17.31-2.94,26.13-8.44,42.15c-0.56,1.58-2.39,6.8-5.2,13.64
			c-2.29,5.46-6.61,15.76-13.84,28.25c-13.77,23.74-29.01,39.79-32.32,43.24c-5.86,6.09-10.7,10.48-12.33,11.92
			c-16.16,14.44-31.89,24.26-41.9,29.98c-2.49,1.44-8.44,4.77-16.49,8.67c-11.87,5.77-30.26,13.75-59.83,22.17
			c-4.51,1.29-10.21,2.81-58.32,13.47c-42.62,9.39-45.47,9.79-58.98,13.29c-24.89,6.43-41.77,12-59.14,19.98
			c-7.39,3.39-11.06,5.11-15.24,7.64c-22.96,13.92-26.07,28.68-44.26,36.58c-0.95,0.4-4.45,1.87-7.69,3.24
			c-3.24,1.38-6.25,2.67-6.25,2.67c6.54-29.69,12-42.38,12-42.38c0.13-0.29,0.79-1.75,2.06-4.62c8.73-19.35,13.28-29.46,17.5-38.07
			c4.68-9.62,12.04-24.49,24.47-42.67c6.97-10.16,12.95-17.72,15.67-21.05c4.19-5.11,10.4-12.75,19.69-22.11
			c18.58-18.69,35.46-30.26,39.42-32.93c7.29-4.94,13.05-8.33,14.46-9.13c19.3-11.25,36.93-18,46.42-21.3
			c20.97-7.38,37.88-10.42,58.06-14.01c32.02-5.69,33.59-3.16,59.17-8.33c5.23-1.06,30.09-6.17,59.7-17.4
			c0,0,24.76-9.42,50.51-23.54c5.63-3.07,7.03-3.93,7.03-3.93c8.41-5.08,10.7-7.95,12.63-7.49l-0.07,0.11
			C1194,989.26,1193.48,995.4,1192.89,1000.65z"/>
		<path class="st2" d="M551.2,1297.54c0,0-3.01-1.29-6.28-2.67c-3.24-1.38-6.71-2.84-7.65-3.24c-18.19-7.9-21.29-22.65-44.26-36.58
			c-4.19-2.53-7.85-4.25-15.24-7.64c-17.37-7.98-34.28-13.55-59.14-19.98c-13.54-3.5-16.36-3.9-58.98-13.29
			c-48.15-10.65-53.81-12.17-58.32-13.47c-29.57-8.41-47.99-16.39-59.86-22.17c-8.01-3.9-13.97-7.24-16.45-8.67
			c-10.01-5.71-25.74-15.53-41.9-29.98c-1.64-1.44-6.48-5.83-12.36-11.92c-3.27-3.45-18.51-19.5-32.29-43.24
			c-7.23-12.49-11.55-22.8-13.84-28.25c-2.85-6.83-4.64-12.06-5.2-13.64c-5.53-16.02-6.51-24.84-8.44-42.15
			c-0.59-5.25-1.11-11.4,1.5-11.97l-0.07-0.11c1.93-0.46,4.19,2.41,12.59,7.49c0,0,1.44,0.86,7.07,3.93
			c25.71,14.13,50.47,23.54,50.47,23.54c29.64,11.23,54.5,16.34,59.73,17.4c25.58,5.17,27.15,2.64,59.17,8.33
			c20.18,3.59,37.09,6.63,58.06,14.01c9.45,3.3,27.08,10.05,46.42,21.3c1.41,0.8,7.16,4.19,14.46,9.13
			c3.96,2.67,20.84,14.24,39.42,32.93c9.26,9.36,15.51,17,19.66,22.11c2.72,3.33,8.73,10.88,15.7,21.05
			c12.43,18.17,19.76,33.05,24.47,42.67c4.22,8.61,8.77,18.72,17.47,38.07c1.28,2.87,1.93,4.34,2.09,4.62
			C539.2,1255.16,544.66,1267.85,551.2,1297.54z"/>
		<path class="st3" d="M1215.2,1127.96c-1.67,3.7-9.55,20.9-32.42,41.17c-1.9,1.67-3.4,2.96-4.29,3.7
			c-7.07,5.86-29.01,23.11-58.52,33.54c-7.98,2.81-24.73,5.48-57.93,10.68c-51.32,8.04-73.4,10.48-74.52,7.9
			c-0.59-1.35,4.58-4.48,14.95-10.74c1.54-0.95,2.72-1.61,2.91-1.72c15.44-8.84,55.51-18.52,55.51-18.52
			c38.6-9.36,54.2-14.87,59.47-16.83c4.71-1.72,10.47-3.82,17.79-7.06c8.51-3.76,24.57-11.46,41.67-23.92
			c5.46-3.99,13.28-9.73,21.72-18.35c11.65-11.86,16.16-20.76,18.15-20.27C1221.81,1108.09,1219.29,1118.57,1215.2,1127.96z"/>
		<path class="st3" d="M316.34,1224.95c-1.11,2.58-23.22,0.14-74.52-7.9c-33.2-5.2-49.98-7.87-57.96-10.68
			c-29.47-10.42-51.42-27.68-58.49-33.54c-0.88-0.75-2.39-2.04-4.32-3.7c-22.86-20.27-30.75-37.47-32.38-41.17
			c-4.12-9.39-6.61-19.87-4.51-20.41c2-0.49,6.51,8.41,18.15,20.27c8.44,8.61,16.22,14.36,21.72,18.35
			c17.11,12.46,33.17,20.16,41.64,23.92c7.36,3.24,13.08,5.34,17.83,7.06c5.27,1.95,20.87,7.47,59.47,16.83
			c0,0,40.07,9.68,55.48,18.52c0.23,0.11,1.41,0.78,2.94,1.72C311.76,1220.47,316.92,1223.6,316.34,1224.95z"/>
		<path class="st2" d="M651.82,1433.43c-29.15-16.22-60.16-31.6-88.68-50.33c-10.51-6.9-15.16-21.67-22.48-32.85
			c12.15-4.58,24.17-12.72,36.48-13.13c49.93-1.64,99.97-1.84,149.91-0.38c12.19,0.36,24.11,9,36.16,13.83
			c-7.34,11.16-12,25.92-22.52,32.78C712.12,1401.98,681.08,1417.26,651.82,1433.43z"/>
	</g>
	<g>
		<path class="st4" d="M182.76,472.29h-0.05c-1.59-1.04-3.94-1.4-6.86-1.15c-0.22-0.04-0.48,0-0.72,0.04
			c0.39-0.38,0.77-0.81,1.16-1.19c22.04-21.83,33.52-32.47,34.48-31.97c0.94,0.52-8.36,11.97-28.01,34.29V472.29z"/>
		<path class="st5" d="M176.28,469.97c-0.12,0.38-0.29,0.77-0.43,1.15c-0.22-0.04-0.48,0-0.72,0.04h-0.05
			c-2.22,0.21-4.76,0.71-7.54,1.5c13.41-28.46,20.76-42.5,21.92-42.23C190.61,430.68,186.19,443.85,176.28,469.97z"/>
		<g>
			<g>
				<path class="st4" d="M48.41,541.92l-0.25,0.14l-0.09,0.05l-0.09,0.05l-82.7,47.46c-64.06-48.81-69.68-65.64-65.23-70.9
					c13.22-15.54,96.59,7.37,146.27,22.57C47.04,541.49,47.72,541.72,48.41,541.92z"/>
				<path class="st4" d="M152.49,439.98c-1.06,13.87-3.15,28.4-5.83,40.73c-1.93,8.93-4.16,16.74-6.52,22.25l-34.12,14.49
					l-42.84,18.23l-12.19,5.21l-2.82,1.17l0.25-0.14c-0.69-0.21-1.38-0.44-2.09-0.64c-12.95-12.67-57.93-60.7-44.08-121.06
					c7.81-33.96,33.29-67.52,59.85-86.35c15.45-10.91,31.25-16.85,44.27-14.99c0.32,0.05,0.67,0.07,1.03,0.16
					c16.67,2.89,28.13,18.99,35.38,39.74c0.02-0.02,0.02-0.02,0.02-0.05C151.66,384.08,154.26,416.38,152.49,439.98z"/>
				<path class="st4" d="M48.41,541.92l-0.25,0.14l-0.09,0.05l-0.09,0.05l-0.48,0.21c0,0-0.14-0.09-0.18-0.16
					c-0.25-0.25-0.55-0.53-0.9-0.83c-0.02-0.02-0.07-0.05-0.09-0.09C47.04,541.49,47.72,541.72,48.41,541.92z"/>
			</g>
		</g>
		<g>
			<path class="st5" d="M120.03,494.93c-0.05,2.38-0.27,4.49-0.51,6.39l-12.44,7.58L63.17,535.7l-16.38,10.01L37,551.68l-0.34,0.21
				c0,0-0.05-0.04-0.1-0.04c-0.39-0.27-0.77-0.52-1.23-0.81c-0.39-0.27-0.82-0.56-1.28-0.88c-5.58-3.76-14.89-10.43-25.03-19.72
				c-21.56-19.68-46.9-51.17-48.16-91.79c-1.72-54.91,40.94-115.46,77.21-114.54c8.48,0.21,16.55,3.82,24.04,9.76
				c9.47,7.48,18.05,18.74,25.42,31.59c12.83,22.44,21.94,49.77,25.86,70.81c1.11,5.98,2.17,12.22,3.14,18.39v0.04
				c4.31,27.74,3.99,30.89,3.48,40.26L120.03,494.93z"/>
			<path class="st5" d="M37.43,551.31c-52.39-7.73-142.48-18.66-151.59-1.25c-3.04,5.83,8.92,23.4,84.36,61.97"/>
		</g>
		<path class="st6" d="M154.26,518.41h-0.07c-13.66,13-30.83,28.24-51.57,44.59v-0.02c-17.36,13.64-37.31,28.06-59.85,42.66
			c-8.45,5.46-17.31,10.95-26.52,16.46c-22.27,13.22-51.89,26.38-60.08,20.34c-6.04-4.39,2.32-17.75,13.52-30.65
			c4.27-4.91,9-9.76,13.45-13.98c11.41-10.91,29.18-27.07,53.47-45.99c0.21-0.18,0.48-0.39,0.67-0.57c3.17-2.43,6.43-4.96,9.83-7.48
			c1.29-0.94,2.55-1.93,3.88-2.89c16.51-12.26,35.5-25.35,56.98-38.62c3.95-2.46,7.92-4.89,12.05-7.32
			c0.55-0.32,1.12-0.64,1.68-0.99c7.76-4.59,16.51-9.3,24.96-13.22v0.02c0.32-0.16,0.83-0.39,1.47-0.69
			c5.9-2.69,11.94-5.44,19.45-7.35c1.7-0.44,4.29-1.01,7.53-1.49h0.05c0.28-0.05,0.51-0.07,0.73-0.05c2.92-0.25,5.26,0.09,6.84,1.15
			h0.07c0,0,0.16,0.09,0.25,0.16C191.15,478.51,171.52,502,154.26,518.41z"/>
	</g>
</g>
</svg>
