<?xml version="1.0" encoding="utf-8"?>
<!-- Generator: Adobe Illustrator 23.1.0, SVG Export Plug-In . SVG Version: 6.00 Build 0)  -->
<svg version="1.1" id="THE_YESSTYLIST" xmlns="http://www.w3.org/2000/svg" xmlns:xlink="http://www.w3.org/1999/xlink" x="0px"
	 y="0px" width="205px" height="19px" viewBox="0 0 205 19" style="enable-background:new 0 0 205 19;" xml:space="preserve">
<style type="text/css">
	.st0{fill:#231815;}
	.st1{fill:#52B134;}
</style>
<g>
	<path class="st0" d="M6.25554,14.84075c0.03128-1.58957,0.04692-3.35803,0.04692-5.30735
		C6.31028,6.8025,6.279,4.45432,6.20861,2.48985L4.94165,2.50158c-0.78207,0-1.5661,0.01955-2.35209,0.05866
		C1.80358,2.59934,1.27373,2.64627,1,2.70101c0.04692-0.2268,0.07039-0.4888,0.07039-0.78598S1.04692,1.35584,1,1.12904
		c0.87592,0.05475,1.86525,0.10167,2.96797,0.14077c1.10272,0.0391,1.95127,0.05866,2.54565,0.05866h0.62175h0.62175
		c0.6413,0,1.51331-0.01955,2.61604-0.05866c1.10272-0.0391,2.06859-0.08603,2.89758-0.14077
		c-0.04692,0.2268-0.07039,0.4888-0.07039,0.78598s0.02346,0.55918,0.07039,0.78598
		c-0.28937-0.05474-0.82704-0.10167-1.61303-0.14077c-0.78598-0.0391-1.56219-0.05866-2.32863-0.05866h-0.9033
		C8.37105,4.45823,8.34367,6.79859,8.34367,9.52167c0,1.97278,0.01564,3.74613,0.04692,5.31908
		c0.03128,1.02549,0.0567,1.73523,0.07625,2.13017c0.01955,0.39592,0.04497,0.67161,0.07625,0.82802
		c-0.35975-0.0391-0.76643-0.05865-1.22004-0.05865c-0.4536,0-0.86028,0.01955-1.22004,0.05865
		c0.03128-0.15641,0.05866-0.43405,0.08212-0.83389C6.20079,16.57402,6.22425,15.86625,6.25554,14.84075z"/>
	<path class="st0" d="M18.55903,14.84271c0.03128-1.58761,0.04692-3.35508,0.04692-5.30246
		c0.00782-1.97865-0.00782-3.75004-0.04692-5.31419c-0.03128-1.02452-0.0567-1.73425-0.07625-2.1292
		c-0.01955-0.39495-0.04497-0.67063-0.07625-0.82704c0.35975,0.0391,0.76643,0.05866,1.22003,0.05866
		c0.4536,0,0.86028-0.01955,1.22004-0.05866c-0.03128,0.14859-0.0567,0.42134-0.07625,0.81678s-0.04497,1.11055-0.07625,2.14435
		c-0.03128,1.21417-0.04692,2.5305-0.04692,3.9485c1.42337,0.12513,3.04227,0.1877,4.85668,0.1877
		c1.82223,0,3.44895-0.06257,4.88014-0.1877l-0.04692-3.9485c-0.03128-1.0338-0.0567-1.74891-0.07625-2.14435
		c-0.01955-0.39544-0.04497-0.66818-0.07625-0.81678c0.35975,0.0391,0.76643,0.05866,1.22004,0.05866
		c0.4536,0,0.86028-0.01955,1.22004-0.05866c-0.03128,0.15641-0.0567,0.4321-0.07625,0.82704s-0.04497,1.10468-0.07625,2.1292
		c-0.03128,1.57979-0.04692,3.34728-0.04692,5.30246c-0.00782,1.97083,0.00782,3.74222,0.04692,5.31419
		c0.03128,1.02453,0.0567,1.73425,0.07625,2.1292s0.04497,0.67063,0.07625,0.82704c-0.35975-0.0391-0.76643-0.05865-1.22004-0.05865
		c-0.4536,0-0.86028,0.01955-1.22004,0.05865c0.03128-0.14859,0.0567-0.42036,0.07625-0.81531
		c0.01955-0.39495,0.04497-1.10859,0.07625-2.14093c0.0391-1.51722,0.05475-3.21041,0.04692-5.07957
		c-1.41555-0.13295-3.03445-0.19552-4.85668-0.1877c-1.82223,0-3.44504,0.06257-4.86841,0.1877
		c-0.02346,1.87698-0.01173,3.57017,0.03519,5.07957c0.03128,1.03234,0.0567,1.74598,0.07625,2.14093
		c0.01955,0.39495,0.04497,0.66672,0.07625,0.81531c-0.35975-0.0391-0.76643-0.05865-1.22004-0.05865
		c-0.4536,0-0.86028,0.01955-1.22003,0.05865c0.03128-0.15641,0.05865-0.43405,0.08212-0.83291
		C18.50428,16.575,18.52774,15.86724,18.55903,14.84271z"/>
	<path class="st0" d="M38.94574,17.92799c0.03079-0.15641,0.05621-0.43209,0.07625-0.82704
		c0.01906-0.39495,0.04448-1.10468,0.07625-2.1292c0.03079-1.61107,0.04692-3.42548,0.04692-5.44323
		c0-2.02557-0.01613-3.83607-0.04692-5.4315c-0.03177-1.02452-0.05719-1.73425-0.07625-2.1292
		c-0.02004-0.39495-0.04546-0.67063-0.07625-0.82704c0.28155,0.05475,0.75079,0.09971,1.40773,0.13491
		c0.65694,0.03519,1.32121,0.05279,1.99429,0.05279l1.81832-0.01173c0.72733,0,1.37841-0.01564,1.95323-0.04692
		c0.57483-0.03128,1.07339-0.08212,1.49572-0.1525c-0.04692,0.2444-0.07038,0.52008-0.07038,0.82704
		s0.02346,0.57922,0.07038,0.81531C47.34081,2.6971,46.85984,2.64431,46.1721,2.6013
		c-0.68872-0.04301-1.35739-0.06452-2.00602-0.06452h-0.84464c-0.73564-0.00782-1.42386,0.00391-2.06467,0.03519l-0.07038,6.01806
		l2.12333-0.01173c0.70387,0,1.42533-0.01955,2.16439-0.05866s1.24936-0.08603,1.53091-0.14077
		c-0.04692,0.23462-0.07039,0.50444-0.07039,0.80945c0,0.2972,0.02346,0.56309,0.07039,0.79773
		c-0.28155-0.05476-0.79185-0.10168-1.53091-0.14079c-0.73906-0.0391-1.46053-0.05865-2.16439-0.05865l-2.1116-0.01173
		c-0.00831,2.58378,0.01173,4.82931,0.05865,6.73366l1.61498,0.02346h0.80162c0.72733,0,1.48545-0.02542,2.27584-0.07625
		c0.78941-0.05083,1.34468-0.10753,1.66582-0.1701c-0.04692,0.2444-0.07038,0.52399-0.07038,0.83877
		c0,0.30696,0.02346,0.58265,0.07038,0.82704c-0.33678-0.05474-0.85051-0.10167-1.54264-0.14077
		c-0.69213-0.0391-1.32806-0.05865-1.90631-0.05865l-1.81832-0.01173c-0.61832,0-1.25523,0.0176-1.91217,0.05279
		C39.77865,17.82828,39.28154,17.87325,38.94574,17.92799z"/>
	<path class="st1" d="M67.02512,11.01837c-0.70387-1.25132-1.56805-2.71771-2.59258-4.39917L62.9427,4.22606
		c-0.69604-1.0949-1.17311-1.83983-1.43119-2.23478s-0.42623-0.63544-0.50444-0.72146
		c0.42965,0.0391,0.92236,0.05866,1.47714,0.05866c0.55478,0,1.047-0.01955,1.47714-0.05866
		c0.1486,0.43796,0.3187,0.85442,0.51031,1.24936c0.1916,0.39495,0.49857,0.96391,0.92089,1.70688l0.89205,1.61889
		c0.78256,1.39209,1.48301,2.58866,2.10133,3.58972l0.00343,0.00587c0.5934-0.95511,1.24545-2.08276,1.95616-3.38247
		l1.00741-1.83201c0.3754-0.65694,0.65498-1.18289,0.83878-1.57783c0.18378-0.39495,0.36562-0.85442,0.54549-1.37841
		c0.31283,0.0391,0.66525,0.05866,1.05629,0.05866s0.73955-0.01955,1.04456-0.05866
		c-0.07821,0.08603-0.24635,0.32652-0.50443,0.72146c-0.25809,0.39495-0.73515,1.13987-1.4312,2.23478l-1.38427,2.21718
		c-0.93849,1.5407-1.74794,2.90149-2.42834,4.08243v1.36081c0,1.84569,0.01173,3.16153,0.03519,3.94752
		c0.02347,0.78598,0.0743,1.44097,0.1525,1.96496c-0.35975-0.0391-0.76643-0.05865-1.22003-0.05865
		s-0.86028,0.01955-1.22004,0.05865c0.07821-0.52399,0.12904-1.17898,0.1525-1.96496
		c0.02347-0.78598,0.03519-2.10182,0.03519-3.94752V11.01837z"/>
	<path class="st1" d="M79.37554,17.92799c0.03128-0.15641,0.0567-0.43209,0.07625-0.82704
		c0.01955-0.39495,0.04498-1.10468,0.07626-2.1292c0.03128-1.61107,0.04692-3.42548,0.04692-5.44323
		c0-2.02557-0.01564-3.83607-0.04692-5.4315c-0.03128-1.02452-0.0567-1.73425-0.07626-2.1292
		c-0.01955-0.39495-0.04497-0.67063-0.07625-0.82704c0.28155,0.05475,0.75079,0.09971,1.40773,0.13491
		s1.32171,0.05279,1.99429,0.05279l1.81832-0.01173c0.72733,0,1.3784-0.01564,1.95322-0.04692
		c0.57483-0.03128,1.0734-0.08212,1.49572-0.1525c-0.04693,0.2444-0.07039,0.52008-0.07039,0.82704s0.02346,0.57922,0.07039,0.81531
		c-0.27373-0.06257-0.7547-0.11536-1.44292-0.15837s-1.3569-0.06452-2.00602-0.06452h-0.84464
		c-0.73515-0.00782-1.42338,0.00391-2.06467,0.03519l-0.07039,6.01806l2.12333-0.01173c0.70387,0,1.42533-0.01955,2.16439-0.05866
		s1.24937-0.08603,1.53091-0.14077c-0.04693,0.23462-0.07039,0.50444-0.07039,0.80945c0,0.2972,0.02346,0.56309,0.07039,0.79773
		c-0.28155-0.05476-0.79185-0.10168-1.53091-0.14079c-0.73906-0.0391-1.46052-0.05865-2.16439-0.05865l-2.1116-0.01173
		c-0.00782,2.58378,0.01173,4.82931,0.05865,6.73366l1.61498,0.02346h0.80163c0.72733,0,1.48594-0.02542,2.27583-0.07625
		s1.34517-0.10753,1.66582-0.1701c-0.04693,0.2444-0.07039,0.52399-0.07039,0.83877c0,0.30696,0.02346,0.58265,0.07039,0.82704
		c-0.3363-0.05474-0.85051-0.10167-1.54264-0.14077c-0.69214-0.0391-1.32757-0.05865-1.9063-0.05865l-1.81832-0.01173
		c-0.61784,0-1.25523,0.0176-1.91217,0.05279C80.20845,17.82828,79.71183,17.87325,79.37554,17.92799z"/>
	<path class="st1" d="M101.18123,3.87412c-0.32065-0.57873-0.74297-1.02843-1.26696-1.34908s-1.0949-0.48098-1.71275-0.48098
		c-0.88374,0-1.6052,0.26591-2.16438,0.79772c-0.55919,0.53181-0.83878,1.21612-0.83878,2.05294
		c0,0.74297,0.26981,1.37645,0.80945,1.90044c0.53963,0.52399,1.396,0.98541,2.56911,1.38427
		c1.48594,0.50835,2.54565,1.12619,3.17913,1.85352c0.62566,0.71951,0.93849,1.67755,0.93849,2.87412
		c0,1.44684-0.52008,2.66883-1.56024,3.66597c-1.04015,0.99714-2.31103,1.49572-3.81261,1.49572
		c-0.94631,0-1.77335-0.12513-2.48113-0.37539c-0.70777-0.25027-1.28455-0.61784-1.73034-1.10272
		c0.09434-0.32065,0.16521-0.59633,0.21214-0.82704c0.04741-0.23071,0.09434-0.50639,0.14126-0.82704l0.37735-0.1134
		c0.35976,0.65205,0.87739,1.18191,1.5534,1.58956c0.67649,0.40766,1.38183,0.61197,2.11649,0.61197
		c1.00887,0,1.83347-0.31674,2.47429-0.95022c0.6413-0.63348,0.96146-1.44684,0.96146-2.44007
		c0-0.81336-0.26981-1.49767-0.80944-2.05294c-0.53963-0.55527-1.39992-1.03625-2.58085-1.44293
		c-1.50158-0.51617-2.57302-1.1301-3.21432-1.84178c-0.63348-0.70387-0.95022-1.64236-0.95022-2.81545
		c0-1.25132,0.46534-2.31104,1.396-3.17914C95.71844,1.43405,96.85636,1,98.20152,1c0.72733,0,1.41164,0.08994,2.05295,0.26982
		c0.6413,0.17988,1.23177,0.44578,1.7714,0.79772c-0.11732,0.34411-0.21117,0.6413-0.28155,0.89156
		c-0.07039,0.25026-0.14468,0.55527-0.22289,0.91503H101.18123z"/>
	<path class="st0" d="M115.54939,3.87412c-0.32065-0.57873-0.74297-1.02843-1.26696-1.34908s-1.0949-0.48098-1.71274-0.48098
		c-0.88375,0-1.60521,0.26591-2.16439,0.79772c-0.55919,0.53181-0.83878,1.21612-0.83878,2.05294
		c0,0.74297,0.26981,1.37645,0.80945,1.90044c0.53963,0.52399,1.396,0.98541,2.56911,1.38427
		c1.48595,0.50835,2.54565,1.12619,3.17913,1.85352c0.62566,0.71951,0.93849,1.67755,0.93849,2.87412
		c0,1.44684-0.52008,2.66883-1.56024,3.66597c-1.04015,0.99714-2.31103,1.49572-3.81261,1.49572
		c-0.94631,0-1.77335-0.12513-2.48113-0.37539c-0.70777-0.25027-1.28455-0.61784-1.73034-1.10272
		c0.09483-0.32065,0.16521-0.59633,0.21214-0.82704c0.04692-0.23071,0.09483-0.50639,0.14175-0.82704l0.37637-0.1134
		c0.35976,0.65205,0.87788,1.18191,1.55437,1.58956c0.67551,0.40766,1.38134,0.61197,2.11649,0.61197
		c1.0079,0,1.83298-0.31674,2.47429-0.95022c0.64032-0.63348,0.96098-1.44684,0.96098-2.44007
		c0-0.81336-0.26982-1.49767-0.80945-2.05294c-0.53963-0.55527-1.39992-1.03625-2.58085-1.44293
		c-1.50158-0.51617-2.57302-1.1301-3.21432-1.84178c-0.63348-0.70387-0.95023-1.64236-0.95023-2.81545
		c0-1.25132,0.46534-2.31104,1.396-3.17914C110.08661,1.43405,111.22453,1,112.56969,1c0.72733,0,1.41164,0.08994,2.05294,0.26982
		s1.23177,0.44578,1.7714,0.79772c-0.11732,0.34411-0.21117,0.6413-0.28155,0.89156
		c-0.07039,0.25026-0.14468,0.55527-0.22289,0.91503H115.54939z"/>
	<path class="st0" d="M126.49256,14.84075c0.03128-1.58957,0.04693-3.35803,0.04693-5.30735
		c0.00782-2.7309-0.02347-5.07908-0.09385-7.04355l-1.26696,0.01173c-0.78207,0-1.56611,0.01955-2.35209,0.05866
		c-0.78599,0.0391-1.31584,0.08603-1.58957,0.14077c0.04693-0.2268,0.07039-0.4888,0.07039-0.78598
		s-0.02346-0.55918-0.07039-0.78598c0.87592,0.05475,1.86525,0.10167,2.96796,0.14077
		c1.10274,0.0391,1.95129,0.05866,2.54567,0.05866h0.62175h0.62174c0.64131,0,1.51332-0.01955,2.61604-0.05866
		c1.10271-0.0391,2.06859-0.08603,2.89758-0.14077c-0.04692,0.2268-0.07039,0.4888-0.07039,0.78598s0.02347,0.55918,0.07039,0.78598
		c-0.28937-0.05474-0.82704-0.10167-1.61302-0.14077c-0.786-0.0391-1.56219-0.05866-2.32863-0.05866h-0.90331
		c-0.05473,1.95665-0.08211,4.29701-0.08211,7.02009c0,1.97278,0.01564,3.74613,0.04692,5.31908
		c0.03128,1.02549,0.0567,1.73523,0.07625,2.13017c0.01956,0.39592,0.04497,0.67161,0.07625,0.82802
		c-0.35974-0.0391-0.76642-0.05865-1.22002-0.05865s-0.86028,0.01955-1.22004,0.05865
		c0.03128-0.15641,0.05865-0.43405,0.08212-0.83389C126.43782,16.57402,126.46128,15.86625,126.49256,14.84075z"/>
	<path class="st0" d="M142.84378,11.01837c-0.70387-1.25132-1.56905-2.71771-2.59258-4.39917l-1.48985-2.39315
		c-0.69702-1.0949-1.17311-1.83983-1.4312-2.23478s-0.42722-0.63544-0.50444-0.72146
		c0.42917,0.0391,0.92188,0.05866,1.47714,0.05866c0.55429,0,1.047-0.01955,1.47617-0.05866
		c0.14859,0.43796,0.3187,0.85442,0.5103,1.24936s0.49858,0.96391,0.9209,1.70688l0.89253,1.61889
		c0.78305,1.39209,1.48302,2.58866,2.10182,3.58972l0.00294,0.00587c0.5934-0.95511,1.24545-2.08276,1.95616-3.38247
		l1.00789-1.83201c0.3754-0.65694,0.65401-1.18289,0.83878-1.57783c0.18282-0.39495,0.36464-0.85442,0.5455-1.37841
		c0.31282,0.0391,0.66476,0.05866,1.0558,0.05866s0.73906-0.01955,1.04504-0.05866
		c-0.07919,0.08603-0.24635,0.32652-0.50444,0.72146s-0.73613,1.13987-1.4312,2.23478l-1.38426,2.21718
		c-0.93849,1.5407-1.74794,2.90149-2.42834,4.08243v1.36081c0,1.84569,0.01173,3.16153,0.03519,3.94752
		c0.02347,0.78598,0.07333,1.44097,0.15251,1.96496c-0.36073-0.0391-0.76741-0.05865-1.22003-0.05865
		c-0.45459,0-0.86127,0.01955-1.22003,0.05865c0.07722-0.52399,0.12903-1.17898,0.1525-1.96496
		c0.02347-0.78598,0.0352-2.10182,0.0352-3.94752V11.01837z"/>
	<path class="st0" d="M155.81544,17.92799c0.03128-0.15641,0.0567-0.43209,0.07625-0.82704
		c0.01956-0.39495,0.04497-1.10468,0.07626-2.1292c0.03128-1.58761,0.04692-3.37856,0.04692-5.37285
		s-0.01564-3.78524-0.04692-5.37285c-0.0313-1.02452-0.0567-1.73425-0.07626-2.1292
		c-0.01955-0.39495-0.04497-0.67063-0.07625-0.82704c0.35976,0.0391,0.76643,0.05866,1.22003,0.05866
		c0.45361,0,0.86029-0.01955,1.22005-0.05866c-0.0313,0.14859-0.0567,0.42036-0.07626,0.81482
		c-0.01955,0.39446-0.04497,1.10761-0.07625,2.13946c-0.03128,1.58614-0.04692,3.37563-0.04692,5.36796
		c0.00781,2.66492,0.03128,4.97106,0.07039,6.91647c0.5318,0.02346,1.09489,0.03128,1.68927,0.02346h0.8681
		c0.73515,0,1.49768-0.02542,2.28757-0.07625c0.7899-0.05083,1.34126-0.10753,1.65408-0.1701
		c-0.04692,0.2444-0.07037,0.52399-0.07037,0.83877c0,0.30696,0.02345,0.58265,0.07037,0.82704
		c-0.3441-0.05474-0.86223-0.10167-1.55437-0.14077c-0.69214-0.0391-1.32365-0.05865-1.89458-0.05865l-1.93562-0.01173
		c-0.63348,0-1.28065,0.0176-1.9415,0.05279C156.63858,17.82828,156.14392,17.87325,155.81544,17.92799z"/>
	<path class="st0" d="M170.11371,14.84271c0.0313-1.58761,0.04694-3.35508,0.04694-5.30246
		c0-1.97865-0.01564-3.75004-0.04694-5.31419c-0.03128-1.02452-0.0567-1.73425-0.07625-2.1292s-0.04497-0.67063-0.07625-0.82704
		c0.35976,0.0391,0.76643,0.05866,1.22003,0.05866s0.86028-0.01955,1.22003-0.05866c-0.03128,0.15641-0.0567,0.4321-0.07625,0.82704
		s-0.04497,1.10468-0.07625,2.1292c-0.03128,1.57979-0.04692,3.34728-0.04692,5.30246c0,1.97083,0.01564,3.74222,0.04692,5.31419
		c0.03128,1.02453,0.0567,1.73425,0.07625,2.1292s0.04497,0.67063,0.07625,0.82704c-0.35976-0.0391-0.76643-0.05865-1.22003-0.05865
		s-0.86028,0.01955-1.22003,0.05865c0.03128-0.15641,0.05865-0.43405,0.08211-0.83291
		C170.05898,16.575,170.08243,15.86724,170.11371,14.84271z"/>
	<path class="st0" d="M186.04163,3.87412c-0.32065-0.57873-0.74297-1.02843-1.26695-1.34908
		c-0.524-0.32065-1.09491-0.48098-1.71275-0.48098c-0.88374,0-1.60519,0.26591-2.16438,0.79772s-0.83878,1.21612-0.83878,2.05294
		c0,0.74297,0.26982,1.37645,0.80945,1.90044s1.396,0.98541,2.56911,1.38427c1.48595,0.50835,2.54565,1.12619,3.17914,1.85352
		c0.62566,0.71951,0.93849,1.67755,0.93849,2.87412c0,1.44684-0.52008,2.66883-1.56024,3.66597s-2.31104,1.49572-3.81261,1.49572
		c-0.94632,0-1.77336-0.12513-2.48114-0.37539c-0.70778-0.25027-1.28455-0.61784-1.73033-1.10272
		c0.09482-0.32065,0.16521-0.59633,0.21213-0.82704c0.04694-0.23071,0.09483-0.50639,0.14175-0.82704l0.37637-0.1134
		c0.35976,0.65205,0.87788,1.18191,1.55438,1.58956c0.67551,0.40766,1.38133,0.61197,2.11649,0.61197
		c1.00789,0,1.83298-0.31674,2.47429-0.95022c0.64032-0.63348,0.96097-1.44684,0.96097-2.44007
		c0-0.81336-0.26982-1.49767-0.80945-2.05294c-0.53963-0.55527-1.39992-1.03625-2.58084-1.44293
		c-1.50159-0.51617-2.57303-1.1301-3.21432-1.84178c-0.63348-0.70387-0.95023-1.64236-0.95023-2.81545
		c0-1.25132,0.46533-2.31104,1.39601-3.17914C180.57884,1.43405,181.71675,1,183.06192,1c0.72734,0,1.41165,0.08994,2.05295,0.26982
		s1.23177,0.44578,1.77139,0.79772c-0.11731,0.34411-0.21115,0.6413-0.28154,0.89156s-0.14468,0.55527-0.22289,0.91503H186.04163z"
		/>
	<path class="st0" d="M196.9848,14.84075c0.03128-1.58957,0.04691-3.35803,0.04691-5.30735
		c0.00783-2.7309-0.02345-5.07908-0.09384-7.04355l-1.26695,0.01173c-0.78207,0-1.5661,0.01955-2.35208,0.05866
		c-0.786,0.0391-1.31584,0.08603-1.58957,0.14077c0.04691-0.2268,0.07039-0.4888,0.07039-0.78598s-0.02348-0.55918-0.07039-0.78598
		c0.87592,0.05475,1.86525,0.10167,2.96797,0.14077c1.10272,0.0391,1.95126,0.05866,2.54564,0.05866h0.62175h0.62175
		c0.64131,0,1.51332-0.01955,2.61604-0.05866c1.10272-0.0391,2.06859-0.08603,2.89758-0.14077
		c-0.04692,0.2268-0.07039,0.4888-0.07039,0.78598S203.95308,2.47421,204,2.70101c-0.28937-0.05474-0.82704-0.10167-1.61302-0.14077
		c-0.786-0.0391-1.56219-0.05866-2.32863-0.05866h-0.90331c-0.05473,1.95665-0.08211,4.29701-0.08211,7.02009
		c0,1.97278,0.01564,3.74613,0.04692,5.31908c0.03128,1.02549,0.0567,1.73523,0.07625,2.13017
		c0.01956,0.39592,0.04497,0.67161,0.07626,0.82802c-0.35976-0.0391-0.76643-0.05865-1.22005-0.05865
		c-0.4536,0-0.86028,0.01955-1.22003,0.05865c0.03128-0.15641,0.05865-0.43405,0.08212-0.83389
		C196.93005,16.57402,196.95351,15.86625,196.9848,14.84075z"/>
</g>
</svg>
